<svg width="284" height="400" viewBox="0 0 284 400" fill="none" xmlns="http://www.w3.org/2000/svg">
<mask id="mask0_174_594" style="mask-type:alpha" maskUnits="userSpaceOnUse" x="0" y="0" width="284" height="400">
<rect width="284" height="400" rx="10" fill="#A19DF5"/>
</mask>
<g mask="url(#mask0_174_594)">
<g clip-path="url(#clip0_174_594)">
<path d="M276.472 148.905H275.406V200.783H276.472V148.905Z" fill="white"/>
<path d="M259.691 155.713H258.626V225.361H259.691V155.713Z" fill="white"/>
<path d="M242.911 159.892H241.846V241.544H242.911V159.892Z" fill="white"/>
<path d="M226.13 146.287H225.065V230.403H226.13V146.287Z" fill="white"/>
<path d="M209.35 101.667H208.285V199.093H209.35V101.667Z" fill="white"/>
<path d="M192.57 128.034H191.504V220.068H192.57V128.034Z" fill="white"/>
<path d="M175.789 160.866H174.724V243.921H175.789V160.866Z" fill="white"/>
<path d="M159.009 206.811H157.943V253.016H159.009V206.811Z" fill="white"/>
<path d="M142.228 106.773H141.163V262.985H142.228V106.773Z" fill="white"/>
<path d="M125.448 40.1769H124.382V212.77H125.448V40.1769Z" fill="white"/>
<path d="M108.667 85.0198H107.602V122.431H108.667V85.0198Z" fill="white"/>
<path d="M91.8869 78.1692H90.8216V156.484H91.8869V78.1692Z" fill="white"/>
<path d="M75.1064 65.4961H74.0411V153.291H75.1064V65.4961Z" fill="white"/>
<path d="M58.326 65.9483H57.2607V103.859H58.326V65.9483Z" fill="white"/>
<path d="M41.5455 76.1526H40.4802V139.004H41.5455V76.1526Z" fill="white"/>
<path d="M24.7651 108.144H23.6998V145.556H24.7651V108.144Z" fill="white"/>
<path d="M7.98468 79.7954H6.91937V145.64H7.98468V79.7954Z" fill="white"/>
<path d="M281.267 166.985H270.609V182.705H281.267V166.985Z" fill="white"/>
<path d="M264.486 179.984H253.828V201.09H264.486V179.984Z" fill="white"/>
<path d="M247.706 188.345H237.048V213.088H247.706V188.345Z" fill="white"/>
<path d="M230.926 175.6H220.268V201.09H230.926V175.6Z" fill="white"/>
<path d="M214.145 135.619H203.487V165.141H214.145V135.619Z" fill="white"/>
<path d="M197.365 160.107H186.707V187.997H197.365V160.107Z" fill="white"/>
<path d="M180.584 189.811H169.926V214.979H180.584V189.811Z" fill="white"/>
<path d="M163.804 222.915H153.146V236.917H163.804V222.915Z" fill="white"/>
<path d="M147.023 157.273H136.365V212.483H147.023V157.273Z" fill="white"/>
<path d="M130.243 100.323H119.585V152.624H130.243V100.323Z" fill="white"/>
<path d="M113.462 98.0563H102.804V109.392H113.462V98.0563Z" fill="white"/>
<path d="M96.682 105.463H86.024V129.195H96.682V105.463Z" fill="white"/>
<path d="M79.9015 96.0916H69.2435V122.696H79.9015V96.0916Z" fill="white"/>
<path d="M63.1211 79.1602H52.4631V90.6496H63.1211V79.1602Z" fill="white"/>
<path d="M46.3407 98.0563H35.6827V117.103H46.3407V98.0563Z" fill="white"/>
<path d="M29.5602 121.183H18.9022V132.519H29.5602V121.183Z" fill="white"/>
<path d="M12.7798 102.742H2.12177V122.696H12.7798V102.742Z" fill="white"/>
<path d="M141.405 293H211.253C214.495 293 217.123 290.372 217.123 287.131V272.31C217.123 269.068 214.495 266.44 211.253 266.44H141.405C138.163 266.44 135.535 269.068 135.535 272.31V287.131C135.535 290.372 138.163 293 141.405 293Z" fill="white"/>
<path d="M176.33 258.613L167.969 271.267H184.69L176.33 258.613Z" fill="white"/>
<path d="M166.053 280.334C166.416 280.824 166.604 281.421 166.587 282.03C166.604 282.472 166.506 282.911 166.301 283.303C166.096 283.695 165.793 284.027 165.42 284.266C164.644 284.792 163.519 285.055 162.046 285.055H156.087V274.02H161.732C163.14 274.02 164.211 274.28 164.946 274.801C165.293 275.029 165.577 275.342 165.77 275.71C165.964 276.077 166.06 276.489 166.051 276.904C166.058 277.402 165.923 277.891 165.662 278.315C165.397 278.74 165.018 279.083 164.568 279.304C165.154 279.492 165.671 279.851 166.053 280.334ZM159.177 276.276V278.404H161.322C162.373 278.404 162.899 278.046 162.899 277.329C162.899 276.612 162.373 276.261 161.322 276.276H159.177ZM163.435 281.681C163.435 280.935 162.888 280.562 161.794 280.562H159.177V282.801H161.794C162.89 282.801 163.437 282.428 163.435 281.681Z" fill="#A19DF5"/>
<path d="M172.477 283.935C171.567 283.044 171.113 281.778 171.113 280.137V274.02H174.229V280.043C174.229 281.807 174.928 282.689 176.325 282.689C177.723 282.689 178.417 281.807 178.407 280.043V274.02H181.481V280.137C181.481 281.774 181.027 283.04 180.117 283.935C179.207 284.83 177.934 285.276 176.296 285.275C174.658 285.275 173.385 284.828 172.477 283.935Z" fill="#A19DF5"/>
<path d="M192.35 281.098V285.052H189.228V281.049L185.026 274.017H188.318L190.936 278.402L193.553 274.017H196.581L192.35 281.098Z" fill="#A19DF5"/>
<path d="M110.252 19.2074H40.4036C37.1616 19.2074 34.5333 21.8353 34.5333 25.0769V39.8977C34.5333 43.1393 37.1616 45.7672 40.4036 45.7672H110.252C113.494 45.7672 116.122 43.1393 116.122 39.8977V25.0769C116.122 21.8353 113.494 19.2074 110.252 19.2074Z" fill="white"/>
<path d="M75.3289 53.594L83.6882 40.9406H66.9671L75.3289 53.594Z" fill="white"/>
<path d="M52.4928 37.4362C51.764 37.2625 51.0707 36.964 50.4437 36.5539L51.4695 34.2506C52.0015 34.5942 52.58 34.8597 53.1873 35.039C53.8098 35.2341 54.458 35.3349 55.1103 35.338C56.31 35.338 56.9089 35.039 56.9073 34.4409C56.9067 34.285 56.8568 34.1332 56.765 34.0072C56.6731 33.8812 56.5439 33.7874 56.3956 33.739C55.8622 33.5277 55.3103 33.3664 54.747 33.2571C54.0408 33.1133 53.3454 32.9209 52.6658 32.6813C52.1121 32.4782 51.6188 32.1381 51.2322 31.6927C50.8115 31.1792 50.5981 30.5268 50.6341 29.8639C50.6266 29.2146 50.819 28.5788 51.1852 28.0425C51.5995 27.4653 52.1709 27.0192 52.8314 26.7574C53.6868 26.4202 54.6015 26.2597 55.5206 26.2854C56.2428 26.286 56.9626 26.3689 57.6661 26.5325C58.3185 26.6754 58.9453 26.9171 59.5248 27.2492L58.5534 29.5599C57.6216 29.0246 56.5703 28.7314 55.4959 28.7073C55.0268 28.6741 54.5575 28.7698 54.1389 28.9841C54.0107 29.0549 53.9037 29.1587 53.8289 29.2847C53.7542 29.4107 53.7145 29.5543 53.7138 29.7008C53.717 29.8489 53.7664 29.9923 53.855 30.1111C53.9436 30.2298 54.067 30.3179 54.2081 30.3631C54.7344 30.5646 55.278 30.7176 55.8321 30.8203C56.5412 30.962 57.2392 31.1544 57.9207 31.3962C58.4711 31.6009 58.9639 31.9358 59.3567 32.3724C59.7816 32.8811 59.9979 33.5319 59.9623 34.1937C59.969 34.8353 59.7764 35.463 59.4111 35.9904C58.9919 36.5669 58.4176 37.0126 57.7551 37.2755C56.9055 37.6228 55.9933 37.791 55.0757 37.7698C54.204 37.769 53.336 37.6569 52.4928 37.4362Z" fill="#A19DF5"/>
<path d="M73.2725 35.1329V37.5449H64.4138V26.5103H73.0648V28.9223H67.4985V30.7956H72.4024V33.1286H67.4985V35.1452L73.2725 35.1329Z" fill="#A19DF5"/>
<path d="M78.0033 26.5103H81.125V35.0711H86.3923V37.5425H78.0033V26.5103Z" fill="#A19DF5"/>
<path d="M90.6165 26.5103H93.7382V35.0711H99.0054V37.5425H90.6165V26.5103Z" fill="#A19DF5"/>
</g>
</g>
<defs>
<clipPath id="clip0_174_594">
<rect width="749" height="282" fill="white" transform="translate(-65 11)"/>
</clipPath>
</defs>
</svg>
