<svg width="20" height="20" viewBox="0 0 20 20" fill="none" xmlns="http://www.w3.org/2000/svg">
<path d="M14.2468 4.81882L11.0059 8.05973C10.6805 8.38516 10.1529 8.38516 9.82743 8.05973L6.58652 4.81882C6.09836 4.33066 5.30691 4.33066 4.81875 4.81882C4.3306 5.30698 4.3306 6.09843 4.81875 6.58659L8.05966 9.82749C8.3851 10.1529 8.3851 10.6806 8.05966 11.006L4.81875 14.2469C4.3306 14.7351 4.3306 15.5265 4.81875 16.0147C5.30691 16.5028 6.09836 16.5028 6.58652 16.0147L9.82743 12.7738C10.1529 12.4483 10.6805 12.4483 11.0059 12.7738L14.2468 16.0147C14.735 16.5028 15.5265 16.5028 16.0146 16.0147C16.5028 15.5265 16.5028 14.7351 16.0146 14.2469L12.7737 11.006C12.4483 10.6806 12.4483 10.1529 12.7737 9.82749L16.0146 6.58659C16.5028 6.09843 16.5028 5.30697 16.0146 4.81882C15.5265 4.33066 14.735 4.33066 14.2468 4.81882Z" fill="white"/>
</svg>
