<svg width="53" height="52" viewBox="0 0 53 52" fill="none" xmlns="http://www.w3.org/2000/svg">
<path d="M15.0894 42.3003L23.0457 48.4601C24.0723 49.4867 26.3823 50 27.9222 50H37.6752C40.755 50 44.0916 47.6901 44.8615 44.6102L51.0213 25.8743C52.3046 22.2811 49.9947 19.2012 46.1448 19.2012H35.8786C34.3386 19.2012 33.0553 17.9179 33.312 16.1213L34.5953 7.90829C35.1086 5.59838 33.5686 3.03181 31.2587 2.26184C29.2055 1.49187 26.6389 2.5185 25.6123 4.05844L15.0894 19.7145" stroke="white" stroke-width="3" stroke-miterlimit="10"/>
<path d="M2 42.3003V17.148C2 13.5548 3.53994 12.2715 7.13314 12.2715H9.6997C13.2929 12.2715 14.8328 13.5548 14.8328 17.148V42.3003C14.8328 45.8935 13.2929 47.1768 9.6997 47.1768H7.13314C3.53994 47.1768 2 45.8935 2 42.3003Z" stroke="white" stroke-width="3" stroke-linecap="round" stroke-linejoin="round"/>
</svg>
