<svg width="55" height="52" viewBox="0 0 55 52" fill="none" xmlns="http://www.w3.org/2000/svg">
<path d="M12.6667 44.6667C12.6667 43.2522 12.1048 41.8956 11.1046 40.8954C10.1044 39.8952 8.74782 39.3333 7.33333 39.3333C5.91885 39.3333 4.56229 39.8952 3.5621 40.8954C2.5619 41.8956 2 43.2522 2 44.6667C2 46.0811 2.5619 47.4377 3.5621 48.4379C4.56229 49.4381 5.91885 50 7.33333 50C8.74782 50 10.1044 49.4381 11.1046 48.4379C12.1048 47.4377 12.6667 46.0811 12.6667 44.6667Z" stroke="white" stroke-width="3" stroke-linecap="round" stroke-linejoin="round"/>
<path d="M7.33333 39.3333V14C7.33333 11.5246 8.31666 9.15068 10.067 7.40034C11.8173 5.65 14.1913 4.66667 16.6667 4.66667C19.142 4.66667 21.516 5.65 23.2663 7.40034C25.0167 9.15068 26 11.5246 26 14V38C26 40.4754 26.9833 42.8493 28.7337 44.5997C30.484 46.35 32.858 47.3333 35.3333 47.3333C37.8087 47.3333 40.1827 46.35 41.933 44.5997C43.6833 42.8493 44.6667 40.4754 44.6667 38V2" stroke="white" stroke-width="3" stroke-linecap="round" stroke-linejoin="round"/>
<path d="M36.6667 10L44.6667 2L52.6667 10" stroke="white" stroke-width="3" stroke-linecap="round" stroke-linejoin="round"/>
</svg>
