<svg width="52" height="52" viewBox="0 0 52 52" fill="none" xmlns="http://www.w3.org/2000/svg">
<path d="M30.3789 5.46603L34.6374 13.9829C35.2181 15.1685 36.7666 16.3057 38.0731 16.5234L45.7916 17.8058C50.7275 18.6285 51.8889 22.2094 48.3321 25.742L42.3316 31.7425C41.3154 32.7587 40.7589 34.7186 41.0734 36.1219L42.7913 43.55C44.1463 49.4295 41.025 51.7039 35.8229 48.6311L28.5884 44.3484C27.2819 43.5742 25.1285 43.5742 23.7977 44.3484L16.5632 48.6311C11.3853 51.7039 8.2399 49.4053 9.59485 43.55L11.3127 36.1219C11.6273 34.7186 11.0708 32.7587 10.0546 31.7425L4.05405 25.742C0.521482 22.2094 1.65868 18.6285 6.59459 17.8058L14.313 16.5234C15.5954 16.3057 17.1439 15.1685 17.7246 13.9829L21.983 5.46603C24.3058 0.844657 28.0803 0.844657 30.3789 5.46603Z" stroke="white" stroke-width="3" stroke-linecap="round" stroke-linejoin="round"/>
</svg>
