<svg width="19" height="18" viewBox="0 0 19 18" fill="none" xmlns="http://www.w3.org/2000/svg">
<path d="M12.964 0H13.0921C13.1948 1.2694 12.7103 2.21789 12.1215 2.90476C11.5437 3.58688 10.7525 4.24845 9.47279 4.14807C9.38743 2.89685 9.87274 2.01871 10.4608 1.33342C11.0062 0.69477 12.0061 0.126466 12.964 0ZM16.8378 13.2125V13.2481C16.4782 14.3372 15.9652 15.2707 15.3392 16.137C14.7677 16.9235 14.0674 17.9818 12.817 17.9818C11.7365 17.9818 11.0188 17.2871 9.91147 17.2681C8.74008 17.2491 8.0959 17.849 7.0249 18H6.65973C5.87327 17.8862 5.23857 17.2633 4.77618 16.7021C3.41272 15.0439 2.35911 12.9019 2.16309 10.1607V9.35529C2.24608 7.39349 3.19931 5.79845 4.46634 5.02542C5.13503 4.61441 6.05427 4.26426 7.07785 4.42076C7.51653 4.48874 7.96469 4.63891 8.35753 4.78751C8.72981 4.93058 9.19536 5.1843 9.63641 5.17086C9.93518 5.16217 10.2324 5.00645 10.5335 4.89659C11.4156 4.57805 12.2803 4.21288 13.4201 4.3844C14.7899 4.59149 15.7621 5.20011 16.3628 6.13911C15.2041 6.87656 14.288 7.98788 14.4445 9.88565C14.5836 11.6095 15.5858 12.6181 16.8378 13.2125Z" fill="#9995DE"/>
</svg>
