<svg width="111" height="329" viewBox="0 0 111 329" fill="none" xmlns="http://www.w3.org/2000/svg">
<g clip-path="url(#clip0_33_132)">
<path d="M0 10H45V55H0V10Z" fill="#CABCF8" fill-opacity="0.3"/>
<path d="M37.9856 29.2858C35.1297 29.2858 32.9464 30.8166 32.9464 33.4836C32.9464 35.7336 34.9328 37.3215 37.5991 37.3215C39.6241 37.3215 41.3043 35.81 41.7857 34.8561C41.7857 34.5588 41.4964 34.4359 41.2272 34.4359C40.7635 35.1719 39.4513 35.7336 38.9129 35.7119C35.689 35.5898 35.1683 34.2591 35.1297 32.8689C35.0686 31.3534 36.6541 30.0411 38.0057 30.14C38.794 30.2018 39.0664 31.5342 39.7575 32.0091C39.9736 32.1312 40.4735 32.1111 40.8021 32.0517C41.0536 32.0091 41.7262 31.8508 41.7262 31.2537C41.7262 30.7571 41.1292 30.2018 40.5514 29.8426C39.9728 29.5654 38.6791 29.2858 37.9856 29.2858ZM18.3375 35.1695C18.3375 36.4062 18.0265 37.0619 17.0421 37.1206L17.0654 37.3215C18.7111 37.3022 20.3834 37.3215 21.9889 37.2837L22.0082 37.1817C21.2657 37.1817 20.6927 36.3829 20.6927 35.3897V32.0597C20.6927 31.2441 21.6715 30.7234 22.3417 30.7852C23.3783 30.8817 23.9504 31.5591 23.9504 32.1593V35.4291C23.9504 36.4263 23.6547 37.0442 22.8913 37.1005V37.2837H27.4058V37.1423C26.7348 37.0619 26.2647 36.4432 26.2647 35.507V32.0782C26.2647 31.3421 26.8947 30.8439 28.0133 30.8246C28.9952 30.8029 29.5835 31.5422 29.5835 32.2397V35.3471C29.5835 36.4062 29.2701 37.0619 28.4866 37.1423V37.2837C30.1339 37.3022 31.4839 37.3022 33.1135 37.2837V37.1817C32.2521 37.1817 31.9596 36.6031 31.9596 35.3897V31.9592C31.9596 30.8246 31.3489 29.4682 29.6413 29.4682C28.4866 29.4682 27.6364 30.0451 27.1527 30.2083C26.8176 30.3449 26.5805 30.504 26.4993 30.504C26.3467 30.504 26.1715 30.4059 25.9529 30.1673C25.5391 29.7237 24.7974 29.4682 24.0099 29.4682C23.0086 29.4682 22.0082 30.0451 21.5349 30.2083C21.4802 30.2267 21.1259 30.4059 21.0849 30.4059C21.0085 30.4059 20.6927 30.4059 20.6927 30.3674C20.6927 29.4111 20.7128 29.2858 20.7128 29.2858H20.0643C19.8723 29.2858 19.5324 29.5686 19.1427 29.7237C18.671 29.9262 17.7284 29.9045 17.3402 30.0082V30.6832L18.3568 30.8825V32.1995L18.3375 35.1695Z" fill="white"/>
<path d="M13.8953 37.1848C15.6407 37.1069 17.3185 36.7316 17.3185 35.0634C17.3185 33.8476 15.9741 33.0794 14.5534 32.4719C13.639 32.0974 12.3155 31.5478 12.3155 31.1155C12.3155 30.6044 13.3232 29.6224 14.2939 30.4083L15.9733 31.8025L16.748 31.6458L16.3157 29.5646C15.9171 29.5839 15.6407 29.6047 14.1942 29.3669C12.4119 29.1122 10.2969 29.9977 10.2969 31.6458C10.2969 32.7467 11.9008 33.5117 13.1681 34.0236C13.8591 34.3177 15.087 34.75 15.087 35.4162C15.087 36.0647 13.9379 36.2439 13.287 36.2439C12.1781 36.2439 10.9486 34.7685 10.9486 34.7685H10.2206L10.6159 36.9711C10.7509 36.8506 11.2483 36.8706 11.3488 36.9108C11.7024 37.045 12.9889 37.2451 13.8953 37.1848ZM9.70147 30.5072V29.4858L7.54709 29.5051C7.27227 29.5051 7.28995 29.4464 7.28995 29.0929L7.31084 27.6963L6.22281 27.6786C5.88772 28.4227 5.47147 28.9161 5.23522 29.0141L3.21423 29.8948V30.5256L3.96959 30.5473C4.30709 30.5473 4.4437 30.5256 4.4437 30.9202V35.0634C4.4437 36.3226 5.13477 37.2451 6.9187 37.2837C8.25905 37.3214 9.07307 36.7316 9.64522 36.1828L9.48772 35.6516C9.24745 35.8107 9.05379 35.9473 8.73477 35.9473C7.21361 35.9473 7.25298 34.7685 7.25298 33.7263V30.9202C7.25298 30.5064 7.28914 30.5064 7.56798 30.5064H9.70147V30.5072Z" fill="white"/>
</g>
<g clip-path="url(#clip1_33_132)">
<path d="M63 0H111V48H63V0Z" fill="#CABCF8" fill-opacity="0.3"/>
<path fill-rule="evenodd" clip-rule="evenodd" d="M86.9571 35.9143C89.4685 35.9143 91.7914 35.1428 93.7114 33.8228C94.14 34.2685 94.6371 34.6457 95.1943 34.92C93.1633 36.4508 90.7457 37.3852 88.2131 37.6182C85.6804 37.8511 83.133 37.3735 80.8568 36.2388C78.5806 35.1041 76.6658 33.3573 75.3274 31.1947C73.989 29.032 73.28 26.539 73.28 23.9957C73.28 21.4524 73.989 18.9594 75.3274 16.7967C76.6658 14.634 78.5806 12.8873 80.8568 11.7526C83.133 10.6179 85.6804 10.1402 88.2131 10.3732C90.7457 10.6061 93.1633 11.5405 95.1943 13.0714C94.6385 13.353 94.1365 13.7302 93.7114 14.1857C92.1725 13.1293 90.4069 12.4494 88.5569 12.2006C86.707 11.9518 84.8245 12.1411 83.0612 12.7533C81.2978 13.3655 79.703 14.3835 78.4053 15.7251C77.1075 17.0668 76.1431 18.6946 75.5899 20.4773C75.0367 22.26 74.9101 24.1478 75.2202 25.9884C75.5304 27.8291 76.2687 29.5711 77.3757 31.074C78.4826 32.577 79.9272 33.7988 81.593 34.641C83.2587 35.4833 85.0991 35.9223 86.9657 35.9228L86.9571 35.9143ZM96.4285 16.8257C96.2996 16.8251 96.1722 16.8536 96.0559 16.9091C95.9395 16.9645 95.8372 17.0455 95.7564 17.146C95.6757 17.2465 95.6187 17.3639 95.5896 17.4895C95.5605 17.6151 95.5602 17.7456 95.5885 17.8714C95.6177 18.0045 95.6783 18.1287 95.7651 18.2338C95.8519 18.3388 95.9625 18.4216 96.0877 18.4754C96.213 18.5291 96.3492 18.5522 96.4851 18.5428C96.6211 18.5333 96.7528 18.4916 96.8694 18.4211C96.986 18.3505 97.0841 18.2532 97.1556 18.1372C97.227 18.0212 97.2698 17.8898 97.2803 17.7539C97.2909 17.618 97.2689 17.4816 97.2161 17.356C97.1634 17.2303 97.0814 17.1191 96.9771 17.0314C96.8241 16.9005 96.6299 16.8277 96.4285 16.8257ZM93.8571 17.6828C93.8571 18.0771 93.9428 18.4543 94.0971 18.78L92.5542 19.7143H81.8571C81.6298 19.7143 81.4118 19.8046 81.251 19.9653C81.0903 20.126 81 20.3441 81 20.5714C81 20.7987 81.0903 21.0167 81.251 21.1775C81.4118 21.3382 81.6298 21.4285 81.8571 21.4285H93.0257L95.3485 20.0228C95.853 20.2563 96.4195 20.32 96.9633 20.2044C97.507 20.0888 97.9986 19.8001 98.3645 19.3817C98.7303 18.9632 98.9507 18.4374 98.9926 17.8831C99.0345 17.3288 98.8957 16.7759 98.597 16.3071C98.2982 15.8384 97.8556 15.479 97.3354 15.283C96.8153 15.0869 96.2456 15.0647 95.7118 15.2197C95.1779 15.3746 94.7087 15.6984 94.3743 16.1424C94.0399 16.5865 93.8585 17.127 93.8571 17.6828ZM97.0028 23.1428C97.205 22.5709 97.6029 22.0889 98.1261 21.782C98.6493 21.4751 99.2642 21.363 99.862 21.4656C100.46 21.5681 101.002 21.8788 101.393 22.3425C101.784 22.8063 101.999 23.3934 101.999 24C101.999 24.6066 101.784 25.1936 101.393 25.6574C101.002 26.1212 100.46 26.4318 99.862 26.5344C99.2642 26.6369 98.6493 26.5249 98.1261 26.2179C97.6029 25.911 97.205 25.429 97.0028 24.8571H80.1428C79.9155 24.8571 79.6975 24.7668 79.5367 24.6061C79.376 24.4453 79.2857 24.2273 79.2857 24C79.2857 23.7726 79.376 23.5546 79.5367 23.3939C79.6975 23.2331 79.9155 23.1428 80.1428 23.1428H97.0028ZM95.5885 30.1543C95.6128 30.0169 95.6703 29.8875 95.7559 29.7773C95.8415 29.6671 95.9527 29.5796 96.0799 29.5221C96.2071 29.4647 96.3463 29.4392 96.4856 29.4479C96.6248 29.4565 96.7599 29.499 96.879 29.5716C96.9981 29.6443 97.0977 29.7449 97.1691 29.8648C97.2405 29.9847 97.2815 30.1202 97.2886 30.2595C97.2958 30.3989 97.2688 30.5379 97.21 30.6644C97.1512 30.791 97.0625 30.9012 96.9514 30.9857C96.8143 31.0931 96.6478 31.1562 96.4739 31.1667C96.3001 31.1771 96.1272 31.1343 95.9783 31.044C95.8294 30.9537 95.7115 30.8202 95.6403 30.6613C95.5692 30.5023 95.5481 30.3255 95.58 30.1543H95.5885ZM94.0885 29.2457C93.9065 29.6374 93.8264 30.0688 93.8558 30.4998C93.8851 30.9308 94.0229 31.3474 94.2564 31.7108C94.4899 32.0743 94.8114 32.3729 95.1912 32.5787C95.5709 32.7846 95.9966 32.8912 96.4285 32.8885C96.8125 32.8854 97.1908 32.7963 97.5359 32.6278C97.8809 32.4593 98.1838 32.2157 98.4223 31.9148C98.6609 31.6139 98.829 31.2634 98.9144 30.8891C98.9998 30.5148 99.0003 30.126 98.9158 29.7515C98.8313 29.3769 98.6641 29.026 98.4263 28.7246C98.1885 28.4231 97.8862 28.1788 97.5416 28.0094C97.197 27.8401 96.8188 27.75 96.4349 27.7459C96.0509 27.7418 95.671 27.8237 95.3228 27.9857L93 26.5714H81.8571C81.6298 26.5714 81.4118 26.6617 81.251 26.8224C81.0903 26.9832 81 27.2012 81 27.4285C81 27.6559 81.0903 27.8739 81.251 28.0346C81.4118 28.1954 81.6298 28.2857 81.8571 28.2857H92.52L94.0885 29.2457ZM100.286 24C100.286 24.225 100.196 24.4409 100.037 24.6C99.878 24.7591 99.6622 24.8485 99.4371 24.8485C99.212 24.8485 98.9962 24.7591 98.8371 24.6C98.6779 24.4409 98.5885 24.225 98.5885 24C98.5885 23.7749 98.6779 23.5591 98.8371 23.3999C98.9962 23.2408 99.212 23.1514 99.4371 23.1514C99.6622 23.1514 99.878 23.2408 100.037 23.3999C100.196 23.5591 100.286 23.7749 100.286 24Z" fill="white"/>
</g>
<g clip-path="url(#clip2_33_132)">
<path d="M63 281H111V329H63V281Z" fill="#CABCF8" fill-opacity="0.3"/>
<path d="M87 321.286L69.8572 304.374L76.3972 293.857H97.6029L104.143 304.374L87 321.286ZM88.7143 305.857V303.766C91.8 303.92 94.68 304.52 95.5715 305.3C94.5343 306.209 90.8229 306.869 87 306.869C83.1772 306.869 79.4657 306.209 78.4286 305.3C79.3115 304.52 82.2 303.929 85.2858 303.757V305.857H88.7143ZM78.4286 305.291V306.551C79.3115 307.331 82.1915 307.923 85.2858 308.094V312.714H88.7143V308.086C91.8 307.931 94.6886 307.331 95.5715 306.551V304.04C94.6886 303.26 91.8 302.66 88.7143 302.497V300.714H93.8572V298.143H80.1429V300.714H85.2858V302.497C82.1915 302.66 79.3115 303.26 78.4286 304.04V305.291Z" fill="white"/>
</g>
<g clip-path="url(#clip3_33_132)">
<path d="M5 264H49V308H5V264Z" fill="#CABCF8" fill-opacity="0.3"/>
<path d="M21.6941 280.936H32.5252L30.9459 276.699C30.8845 276.525 30.7722 276.373 30.6237 276.264L21.6941 280.936ZM21.6642 275.907C22.0485 274.876 22.8923 274.214 23.8226 274.214H30.2262C31.1572 274.214 32.0019 274.876 32.3853 275.907L33.9638 280.144C34.4368 281.415 33.6723 282.857 32.5252 282.857H21.5252C20.378 282.857 19.6127 281.415 20.0857 280.144L21.6642 275.907ZM13.041 291.936H23.8501L22.2724 287.699C22.2106 287.525 22.0978 287.373 21.9487 287.264L13.041 291.936ZM13.0112 286.907C13.3954 285.876 14.24 285.214 15.1695 285.214H21.5527C22.483 285.214 23.3268 285.876 23.711 286.907L25.2895 291.144C25.7633 292.415 24.998 293.857 23.8493 293.857H12.8705C11.7234 293.857 10.9589 292.415 11.4327 291.144L13.0112 286.907ZM41.2105 291.936H30.3283L39.309 287.265C39.4489 287.364 39.5628 287.513 39.6327 287.699L41.2105 291.936ZM32.4552 285.214C31.525 285.214 30.6811 285.876 30.2977 286.907L28.7184 291.144C28.2462 292.415 29.0107 293.857 30.1586 293.857H41.2105C42.3576 293.857 43.1229 292.415 42.6491 291.144L41.0698 286.907C40.6887 285.876 39.8433 285.214 38.9138 285.214H32.4552Z" fill="white"/>
</g>
<g clip-path="url(#clip4_33_132)">
<path d="M43 48H84V89H43V48Z" fill="#CABCF8" fill-opacity="0.3"/>
<path d="M74.9507 70.6745C74.3284 70.6745 73.999 70.3157 73.999 69.6715L74.0063 69.5397H76.4443C76.4956 69.3713 76.5249 69.1809 76.5249 69.0125C76.5249 68.2218 76.005 67.6215 74.9288 67.6215C74.39 67.6412 73.8784 67.8631 73.4958 68.2429C73.1132 68.6228 72.8877 69.1328 72.8641 69.6715C72.8641 70.6745 73.5743 71.2822 74.7531 71.2822C75.2802 71.2822 75.7927 71.1211 76.1588 70.8649L75.9318 70.345C75.639 70.55 75.3022 70.6672 74.9507 70.6745ZM74.9507 68.1852C75.3095 68.1852 75.4925 68.4049 75.4925 68.8807L75.4852 69.0272H74.0941C74.2406 68.5147 74.57 68.1925 74.9434 68.1925L74.9507 68.1852ZM64.9643 67.1602C64.9643 66.245 64.1956 65.5715 63.0388 65.5715H60.7984L59.1072 71.4286H60.5202L61.1425 69.2688H62.3725C63.7782 69.2688 64.9643 68.4195 64.9643 67.1602ZM61.8307 68.5806H61.3475L62.0138 66.2597H62.5263C63.1706 66.2597 63.5293 66.6697 63.5293 67.2115C63.5293 68.0827 62.8045 68.5806 61.8307 68.5806ZM63.3756 75.082H64.6495V75.0893L66.5165 68.5H67.849L67.0582 71.4286H68.3468L69.3279 67.7679H66.7215L66.9338 66.8893C67.007 66.6038 67.1315 66.1279 67.3072 65.5715C67.4902 65.0077 67.8197 64.649 68.2736 64.649C68.4932 64.649 68.625 64.7515 68.625 64.9199C68.6177 65.0956 68.464 65.2054 68.464 65.4982C68.464 65.835 68.7568 66.0913 69.1302 66.0913C69.5988 66.0913 69.9722 65.7252 69.9722 65.2713C69.9722 64.5684 69.3645 64.1072 68.4347 64.1072C67.0802 64.1072 66.187 64.9638 65.6306 66.9625M73.1424 67.7679H69.7086L69.5402 68.5H71.2022L68.6324 71.4286H72.2711L72.4395 70.6965H70.5652L73.1424 67.7679ZM80.3027 67.7679C79.8195 67.7679 79.2997 68.0607 78.897 68.6538L79.1386 67.7679H77.7768L76.6786 71.4286H78.0257L78.5309 69.9057C78.7286 69.2102 79.2191 68.5366 79.5486 68.5366C79.9 68.5366 79.7682 69.137 80.3686 69.137C80.8079 69.137 81.0715 68.7709 81.0715 68.4268C81.0715 68.0315 80.7274 67.7679 80.3027 67.7679Z" fill="white"/>
<path d="M47.0121 67.7678C48.125 67.2627 50.0505 67.1236 52.5178 67.4018L53.2133 64.9857C49.6551 64.5537 47.0633 65.0369 46.6241 66.5671L46.6094 66.633C46.5362 66.9918 46.6826 67.3725 47.0121 67.7605V67.7678Z" fill="white"/>
<path d="M58.0235 67.0431C56.9107 67.5409 54.9778 67.6801 52.5178 67.4018L51.8223 69.8179C55.3732 70.2499 57.9723 69.7667 58.4116 68.2365L58.4262 68.1779C58.4994 67.8118 58.353 67.4311 58.0235 67.0431Z" fill="white"/>
<path d="M49.0035 61.1786L48.3007 63.5947C52.4666 63.8802 56.6983 65.4836 58.0235 67.0431C58.536 66.8234 58.8728 66.5159 59.0046 66.1498L58.4189 68.1779L58.4116 68.2364L58.8801 66.5964C59.0339 66.0839 59.1071 65.8131 59.1071 65.6007C59.1071 63.7411 53.9308 61.4714 49.0035 61.1786Z" fill="white"/>
<path d="M58.0236 67.043C58.353 67.431 58.4995 67.8191 58.4262 68.1778L59.012 66.1425C58.8655 66.5085 58.5361 66.816 58.0236 67.043Z" fill="white"/>
<path d="M47.0122 67.7678C46.4997 67.9875 46.1629 68.2876 46.0238 68.6537C45.9579 68.8953 45.9286 69.0564 45.9286 69.1955C45.9286 71.0698 51.1048 73.3394 56.0322 73.625L56.7277 71.2089C52.5691 70.916 48.3447 69.3273 47.0122 67.7678Z" fill="white"/>
<path d="M47.0122 67.7679C46.6827 67.3725 46.5363 66.9918 46.6095 66.6257L46.0238 68.6391V68.6611C46.1629 68.295 46.4997 67.9875 47.0122 67.7606V67.7679Z" fill="white"/>
</g>
<g clip-path="url(#clip5_33_132)">
<path d="M12 188H52V228H12V188Z" fill="#CABCF8" fill-opacity="0.3"/>
<path d="M29.835 215.206C27.6586 218.285 24.4264 219.417 23.3064 218.285C22.38 217.349 22.4793 214.957 23.9407 211.922C22.6878 210.376 22.0028 208.447 22 206.457C22 201.737 25.8479 198 30.595 198C31.9757 198 33.2757 198.316 34.4264 198.88C35.9814 197.573 37.4379 196.526 38.5407 195.857C38.1679 196.234 37.7207 196.667 37.2207 197.152C36.5049 197.843 35.7963 198.541 35.095 199.246C36.335 199.996 37.3596 201.055 38.069 202.318C38.7784 203.582 39.1483 205.007 39.1429 206.456C39.1429 207.826 38.8229 209.133 38.2521 210.297C42.5064 211.654 49.8571 212.129 49.8571 212.129L36.6736 212.545C35.1286 214.141 32.9807 215.143 30.595 215.143C28.5843 215.143 26.7343 214.431 25.27 213.251C24.3593 215.821 24.905 216.826 25.9171 216.965C27.1143 217.13 28.9643 216.086 29.835 215.206ZM25.5421 212.541C26.8936 213.681 28.6464 214.364 30.595 214.364C32.6371 214.364 34.4536 213.614 35.8171 212.375L32.8814 207.291C32.8814 207.291 34.8336 208.934 37.2343 209.929C37.3386 209.972 37.4464 210.015 37.5571 210.057C38.1038 208.936 38.3856 207.704 38.3807 206.456C38.3807 203.521 36.88 201.082 34.5664 199.786C33.2836 201.108 31.9257 202.606 30.7057 204.212L30.5557 204.41C28.55 207.049 27.3307 208.654 25.9171 211.689C25.7779 211.987 25.6529 212.271 25.5421 212.541ZM24.3007 211.214C24.5243 210.796 24.7729 210.367 25.0471 209.93C26.7071 207.281 27.7271 205.716 29.835 203.334C31.0728 201.944 32.3984 200.634 33.8036 199.414C32.7873 198.99 31.6962 198.774 30.595 198.78C26.175 198.78 22.7621 202.062 22.7621 206.457C22.7621 208.249 23.3293 209.894 24.3007 211.214Z" fill="white"/>
</g>
<g clip-path="url(#clip6_33_132)">
<path d="M39 232H76V269H39V232Z" fill="#CABCF8" fill-opacity="0.3"/>
<path d="M51.1684 245.681L50.2361 245.235L50.8394 246.519L50.1258 248.082L51.1136 247.523L52.3194 249.142L52.1 247.134L53.2516 246.519L52.1 246.017L52.2645 244.286L51.1684 245.681ZM54.6979 261.071C50.2011 259.833 46.9286 255.659 46.9286 250.69C46.9286 244.747 51.6619 239.929 57.5 239.929C63.3387 239.929 68.0714 244.747 68.0714 250.69C68.0787 253.437 67.0421 256.083 65.1716 258.094C65.1716 258.094 64.4362 257.123 64.2162 256.788C63.9968 256.453 63.6678 256.411 63.7233 255.951C63.7894 255.394 64.2162 254.834 64.2162 254.834L64.3259 255.281C64.3259 255.281 67.4041 251.987 67.0678 249.756C66.8471 248.305 65.971 248.137 65.971 248.137C65.971 248.137 66.1897 246.798 64.1613 245.793C62.1329 244.789 60.5981 244.956 60.5981 244.956L61.4755 245.626C61.4755 245.626 60.4197 245.434 59.8852 245.57L59.4465 245.682L60.0147 245.961C60.0147 245.961 58.8578 246.014 58.0762 246.631C57.4657 247.113 57.4181 247.412 57.4181 247.412H57.8568C57.8568 247.412 57.4729 248.082 57.3632 248.752C57.2536 249.422 57.3018 249.603 57.3018 249.603C57.3018 249.603 57.3018 249.917 56.7468 250.335C56.3405 250.641 55.9454 250.712 55.8218 250.879C55.6355 251.132 56.2116 251.542 56.2116 251.542C56.2116 251.542 56.1713 251.843 55.9037 252.177C55.7815 252.33 56.2123 252.596 56.3557 252.659L56.0068 252.951C56.0068 252.951 55.8832 253.077 56.0887 253.223C56.2942 253.37 56.2123 253.684 56.1297 254.019C56.0478 254.354 55.8832 254.877 56.9932 255.002C58.1032 255.128 58.1654 255.337 58.2684 255.484C58.3708 255.631 59.0084 257.473 58.6794 257.765C58.2268 258.168 57.4326 258.049 55.9037 259.104C54.7514 259.899 54.6979 261.071 54.6979 261.071Z" fill="white"/>
<path d="M58.2267 249.163C58.2267 249.163 58.5967 249.728 58.7408 249.833C58.8848 249.937 58.9258 250.084 58.8227 250.105C58.7196 250.125 58.0001 250.105 58.0001 250.105L58.0417 249.979C58.0417 249.979 57.9796 249.812 58.0417 249.644C58.1032 249.477 58.2677 249.414 58.2677 249.414L58.2267 249.163Z" fill="white"/>
</g>
<g clip-path="url(#clip7_33_132)">
<path d="M17 99H58V140H17V99Z" fill="#CABCF8" fill-opacity="0.3"/>
<path d="M43.2166 108.883C42.6324 106.437 41.1688 104.446 40.9667 104.125C40.6475 104.581 39.4805 106.34 38.886 108.284C38.2381 110.462 38.1421 112.392 38.3662 114.285C38.588 116.185 39.4278 118.137 39.4278 118.137C39.8729 119.155 40.5406 120.255 40.9763 120.794C41.6132 120.001 43.0782 117.637 43.5351 114.554C43.7892 112.834 43.8001 111.329 43.2166 108.883ZM40.9667 120.18C40.6797 119.664 40.2339 118.684 40.1914 117.158C40.1804 115.691 40.7962 114.427 40.9763 114.165C41.1366 114.427 41.6667 115.527 41.7304 117.03C41.7588 118.129 41.4953 119.216 40.9667 120.18ZM43.0475 113.035C43.0255 113.971 42.9084 114.959 42.7605 115.549C42.8132 114.532 42.6858 113.103 42.442 111.981C42.1975 110.866 41.5071 108.995 40.9558 108.135C40.4469 108.958 39.8195 110.574 39.4907 111.973C39.1613 113.372 39.151 115.07 39.151 115.579C39.0632 115.153 38.845 113.619 38.9065 112.085C38.9577 110.821 39.2682 109.511 39.4373 108.913C40.0852 106.916 40.8181 105.636 40.9558 105.434C41.0934 105.636 42.0166 107.215 42.4947 108.868C42.8788 110.223 43.065 111.627 43.0475 113.035Z" fill="white"/>
<path d="M41.9581 121.696H37.5161V124.213C37.5198 124.213 37.5235 124.206 37.5271 124.206C38.5734 123.202 40.2705 123.202 41.3182 124.206C42.3644 125.201 42.3644 126.824 41.3182 127.826C41.313 127.833 41.3086 127.833 41.3035 127.841C41.2984 127.841 41.2925 127.849 41.2881 127.856C40.2441 128.844 38.8794 129.338 37.5161 129.338C36.1456 129.338 34.775 128.844 33.7302 127.841C31.8874 126.083 31.6692 123.353 33.0742 121.362C33.2631 121.093 33.4813 120.838 33.7302 120.599C34.775 119.597 36.1295 119.103 37.5 119.103V112.25C32.2345 112.25 27.9822 116.328 27.9822 121.363C27.9822 126.398 32.2506 130.482 37.5161 130.482C40.2617 130.482 43.0819 129.367 44.8215 127.595V121.696H41.9581Z" fill="white"/>
</g>
<defs>
<clipPath id="clip0_33_132">
<rect y="10" width="45" height="45" rx="7" fill="white"/>
</clipPath>
<clipPath id="clip1_33_132">
<rect x="63" width="48" height="48" rx="7" fill="white"/>
</clipPath>
<clipPath id="clip2_33_132">
<rect x="63" y="281" width="48" height="48" rx="7" fill="white"/>
</clipPath>
<clipPath id="clip3_33_132">
<rect x="5" y="264" width="44" height="44" rx="7" fill="white"/>
</clipPath>
<clipPath id="clip4_33_132">
<rect x="43" y="48" width="41" height="41" rx="7" fill="white"/>
</clipPath>
<clipPath id="clip5_33_132">
<rect x="12" y="188" width="40" height="40" rx="7" fill="white"/>
</clipPath>
<clipPath id="clip6_33_132">
<rect x="39" y="232" width="37" height="37" rx="7" fill="white"/>
</clipPath>
<clipPath id="clip7_33_132">
<rect x="17" y="99" width="41" height="41" rx="7" fill="white"/>
</clipPath>
</defs>
</svg>
