<svg width="76" height="339" viewBox="0 0 76 339" fill="none" xmlns="http://www.w3.org/2000/svg">
<g clip-path="url(#clip0_33_132)">
<path d="M57 285H76V304H57V285Z" fill="#CABCF8" fill-opacity="0.3"/>
<path d="M70.571 298.57H62.4292V290.43H70.571V298.57Z" fill="#CABCF8" fill-opacity="0.3"/>
<path d="M58.3572 294.5L62.4286 298.571V290.428L58.3572 294.5ZM62.4286 298.571L70.5715 298.571L66.5 294.5L62.4286 298.571ZM66.5 294.5L70.5715 290.429H62.4286L66.5 294.5ZM70.5715 290.429V298.571L74.6429 294.5L70.5715 290.429Z" fill="white"/>
</g>
<g clip-path="url(#clip1_33_132)">
<path d="M23 290H42V309H23V290Z" fill="#CABCF8" fill-opacity="0.3"/>
<path d="M29.9565 300.857C29.3804 300.857 28.8457 300.69 28.4887 300.379C28.3623 300.27 28.261 300.134 28.1921 299.982C28.1231 299.83 28.0881 299.665 28.0894 299.498C28.0894 299.174 28.2244 298.853 28.4887 298.619C28.8202 298.327 29.4055 298.143 29.9565 298.143C30.5665 298.143 31.0544 298.292 31.4276 298.62C31.5524 298.73 31.6522 298.865 31.7202 299.016C31.7882 299.167 31.8227 299.332 31.8215 299.498C31.8203 299.664 31.7846 299.828 31.7169 299.979C31.6492 300.131 31.5508 300.267 31.428 300.379C31.0799 300.692 30.5343 300.857 29.9565 300.857L29.9561 300.499C30.2622 300.499 30.5458 300.397 30.744 300.206C30.9407 300.016 31.0324 299.783 31.0324 299.498C31.0324 299.224 30.9333 298.969 30.744 298.788C30.5485 298.602 30.2578 298.496 29.9561 298.496C29.6535 298.496 29.3631 298.6 29.1673 298.788C28.979 298.969 28.8799 299.225 28.8799 299.497C28.8799 299.769 28.98 300.025 29.1673 300.206C29.3631 300.395 29.6525 300.499 29.9561 300.499L29.9565 300.857ZM25.1698 298.329C25.4518 298.199 25.7839 298.143 26.0757 298.143C26.5914 298.144 27.0115 298.317 27.1604 298.398C27.2195 298.432 27.251 298.391 27.251 298.36V298.263H27.5835V299.097H27.2856C27.2601 298.974 27.1955 298.862 27.1014 298.779C27.0443 298.733 26.9814 298.694 26.9144 298.664C26.737 298.582 26.4581 298.504 26.1287 298.506C25.8504 298.506 25.5831 298.559 25.4508 298.645C25.3673 298.698 25.3252 298.765 25.3252 298.843C25.3252 298.954 25.4175 299 25.4626 299.014C25.6119 299.061 25.9851 299.094 26.2006 299.117C26.4062 299.139 26.8354 299.198 27.0254 299.247C27.1231 299.271 27.2425 299.315 27.3185 299.352C27.4057 299.394 27.4889 299.449 27.5574 299.52C27.6076 299.572 27.7501 299.742 27.7501 300.016C27.7501 300.302 27.5862 300.459 27.5116 300.521C27.3735 300.635 27.2039 300.707 27.0664 300.748C26.9206 300.791 26.7095 300.857 26.3166 300.857C26.0757 300.857 25.9509 300.827 25.7571 300.785C25.572 300.743 25.3915 300.683 25.2184 300.605C25.1563 300.577 25.1386 300.637 25.1386 300.652V300.781H24.7702V299.823H25.1016C25.1016 299.936 25.1539 300.051 25.1871 300.093C25.3208 300.262 25.4643 300.328 25.6011 300.378C25.7191 300.422 26.0442 300.506 26.3146 300.506C26.681 300.506 26.8846 300.409 26.9141 300.397C26.9436 300.385 27.1136 300.328 27.1136 300.142C27.1136 299.956 26.9524 299.921 26.8564 299.896C26.7356 299.864 26.4391 299.833 26.1378 299.8C25.8342 299.768 25.5291 299.718 25.3866 299.686C25.0677 299.614 24.9456 299.491 24.8699 299.419C24.8747 299.424 24.6965 299.254 24.6965 298.965C24.6965 298.643 24.9096 298.449 25.1698 298.329ZM38.1954 300.512C38.1838 300.516 38.1241 300.518 38.1105 300.518H37.7848V300.857H39.4572V300.518H39.1162C39.1026 300.518 39.0439 300.516 39.032 300.512C38.9991 300.501 38.9652 300.475 38.955 300.447C38.9482 300.43 38.9482 300.384 38.9482 300.374V299.841C38.9482 299.828 38.9472 299.806 38.9594 299.791C38.9832 299.761 39.886 298.659 39.9244 298.611C40.0085 298.505 40.054 298.482 40.1652 298.482H40.4733V298.143H39.0958V298.482H39.3035C39.3622 298.482 39.3808 298.551 39.3537 298.587C39.3489 298.593 38.7762 299.342 38.7694 299.349C38.762 299.356 38.7576 299.354 38.7525 299.347C38.747 299.338 38.1814 298.586 38.1814 298.586C38.1414 298.531 38.1726 298.481 38.2194 298.481H38.422V298.143H36.7412V298.482H37.0391C37.169 298.482 37.2545 298.573 37.303 298.632C37.3424 298.68 38.2259 299.76 38.2476 299.791C38.2673 299.82 38.268 299.825 38.268 299.838V300.374C38.268 300.385 38.2656 300.436 38.2612 300.447C38.2556 300.462 38.2468 300.476 38.2355 300.487C38.2241 300.498 38.2104 300.507 38.1954 300.512ZM35.2144 299.839L33.4433 298.143H31.9912V298.482H32.2769C32.4835 298.482 32.5001 298.611 32.5001 298.713V300.301C32.5001 300.396 32.5052 300.518 32.3739 300.518H32.0217V300.865L33.6944 300.857V300.518H33.3263C33.1797 300.518 33.1804 300.448 33.1787 300.301V298.991L35.2364 300.857H35.893V298.678C35.895 298.52 35.9154 298.482 36.0728 298.482H36.4019V298.143H34.6987V298.482H35.0359C35.1906 298.482 35.2168 298.544 35.2188 298.692L35.2144 299.839Z" fill="white"/>
</g>
<g clip-path="url(#clip2_33_132)">
<path d="M15 46H33V64H15V46Z" fill="#CABCF8" fill-opacity="0.3"/>
<path d="M23.9999 60.7857L25.4464 52.7499C26.8179 52.7499 27.2444 52.7731 27.3068 53.3896C27.3068 53.3896 28.227 53.045 28.6909 52.3449C26.8803 51.5028 25.0606 51.4642 25.0606 51.4642L23.9999 52.7499L22.9392 51.4642C22.9392 51.4642 21.1199 51.5022 19.3093 52.3449C19.7728 53.0447 20.6934 53.3896 20.6934 53.3896C20.7561 52.7724 21.1913 52.7509 22.5535 52.7499L23.9999 60.7857Z" fill="white"/>
<path d="M24 51.1258C25.4638 51.1146 27.1063 51.3563 28.8215 52.1071C29.0506 51.6925 29.1429 51.4643 29.1429 51.4643C27.268 50.7192 25.512 50.5064 24 50.5C22.4877 50.5064 20.7321 50.7192 18.8572 51.4643C18.8572 51.4643 18.9742 51.7352 19.1786 52.1071C20.8934 51.3563 22.5362 51.1146 24 51.1258Z" fill="white"/>
<path d="M23.9999 60.7857L25.4464 52.7499C26.8179 52.7499 27.2444 52.7731 27.3068 53.3896C27.3068 53.3896 28.227 53.045 28.6909 52.3449C26.8803 51.5028 25.0606 51.4642 25.0606 51.4642L23.9999 52.7499L22.9392 51.4642C22.9392 51.4642 21.1199 51.5022 19.3093 52.3449C19.7728 53.0447 20.6934 53.3896 20.6934 53.3896C20.7561 52.7724 21.1913 52.7509 22.5535 52.7499L23.9999 60.7857Z" fill="white"/>
<path d="M24 51.1258C25.4638 51.1146 27.1063 51.3563 28.8215 52.1071C29.0506 51.6925 29.1429 51.4643 29.1429 51.4643C27.268 50.7192 25.512 50.5064 24 50.5C22.4877 50.5064 20.7321 50.7192 18.8572 51.4643C18.8572 51.4643 18.9742 51.7352 19.1786 52.1071C20.8934 51.3563 22.5362 51.1146 24 51.1258Z" fill="white"/>
</g>
<g clip-path="url(#clip3_33_132)">
<path d="M0 306H33V339H0V306Z" fill="#CABCF8" fill-opacity="0.3"/>
<path d="M23.5337 320.558C23.8372 318.499 22.2785 317.401 20.1317 316.655L20.8271 313.881L19.1317 313.459L18.4552 316.165L17.1022 315.842L17.7881 313.116L16.0922 312.695L15.3962 315.479L14.3178 315.224V315.215L11.9748 314.626L11.5234 316.44C11.5234 316.44 12.7786 316.734 12.7586 316.744C13.4451 316.921 13.563 317.371 13.5435 317.724L12.7586 320.901L12.9354 320.96L12.7492 320.92L11.6413 325.362C11.5629 325.568 11.3467 325.881 10.867 325.753C10.8864 325.783 9.64126 325.459 9.64126 325.459L8.79858 327.391L11.0043 327.94L12.21 328.254L11.504 331.068L13.2 331.489L13.8865 328.705L15.2489 329.058L14.5535 331.832L16.2489 332.254L16.9449 329.44C19.8371 329.989 22.0139 329.774 22.9261 327.155C23.661 325.048 22.8866 323.842 21.3669 323.038C22.4747 322.793 23.308 322.057 23.5237 320.557H23.5337V320.558ZM19.6609 325.989C19.1411 328.097 15.5925 326.95 14.4457 326.675L15.3768 322.94C16.5235 323.234 20.2101 323.793 19.6609 325.979V325.989ZM20.1806 320.528C19.7098 322.44 16.7492 321.469 15.7981 321.234L16.6408 317.852C17.6019 318.087 20.6804 318.538 20.1806 320.528Z" fill="white"/>
</g>
<g clip-path="url(#clip4_33_132)">
<path d="M39 300H64V325H39V300Z" fill="#CABCF8" fill-opacity="0.3"/>
<path d="M52.8394 317.817V320.089H50.6072V316.263L45.6965 306.696H48.2412L52.268 314.17C52.9555 315.607 52.8394 316.098 52.8394 317.817ZM57.3037 306.696L54.4197 312.946H51.9376L54.8394 306.696H57.3037Z" fill="white"/>
</g>
<g clip-path="url(#clip5_33_132)">
<path d="M28 34H46V52H28V34Z" fill="#CABCF8" fill-opacity="0.3"/>
<path d="M38.1958 48.4585C37.3987 48.4585 36.8201 48.273 36.4489 47.8963C36.0889 47.5196 35.9031 47.1159 35.9031 46.6845C35.9031 46.5206 35.9413 46.3898 36.0011 46.2805C36.0638 46.1731 36.1544 46.0844 36.2634 46.024C36.3727 45.9639 36.509 45.9314 36.6671 45.9314C36.8256 45.9314 36.9673 45.9639 37.0766 46.024C37.192 46.0881 37.2867 46.1838 37.3495 46.2998C37.4124 46.4158 37.4408 46.5474 37.4315 46.6791C37.4315 46.8755 37.3877 47.0285 37.2949 47.1538C37.2114 47.2652 37.0948 47.3473 36.9619 47.3885C37.0711 47.5415 37.2457 47.6453 37.4858 47.7109C37.7204 47.7761 37.9609 47.8089 38.1955 47.8089C38.5133 47.8125 38.8249 47.7213 39.0907 47.5469C39.3639 47.3724 39.5548 47.1104 39.6802 46.772C39.8113 46.428 39.8711 46.0404 39.8711 45.6094C39.8711 45.1343 39.8059 44.7357 39.6638 44.403C39.5522 44.0925 39.3411 43.8277 39.0634 43.6496C38.8007 43.4888 38.498 43.4055 38.19 43.4095C37.9936 43.4095 37.7368 43.4915 37.4315 43.6551L36.8747 43.9283V43.6551L39.3851 40.4286H36.0358V43.7808C36.0358 44.5242 36.6067 45.0417 37.2675 44.5557C37.4542 44.4202 37.6166 44.2541 37.7481 44.0646C37.7623 44.0335 37.7849 44.0071 37.8133 43.9881C37.836 43.968 37.865 43.9564 37.8953 43.9553C37.9445 43.9553 37.9991 43.9826 38.0592 44.026C38.1177 44.0884 38.1508 44.17 38.1518 44.2555C38.1441 44.3144 38.1332 44.3727 38.119 44.4304C37.9926 44.7249 37.7842 44.9768 37.5186 45.1561C36.8821 45.5795 35.7263 45.5139 35.1827 44.9707C35.0353 44.8111 34.9211 44.6236 34.8471 44.4192C34.7731 44.2149 34.7407 43.9978 34.7517 43.7808V40.4286H32.8215V39.7857H34.7517V38.1786L34.4287 37.8571V37.5415H35.5267L36.0358 38.1786V39.7857H40.5101L40.9685 40.1618L38.1463 42.9348C38.316 42.8679 38.4944 42.8255 38.676 42.8091C38.9814 42.8091 39.3308 42.9074 39.713 43.0984C40.0951 43.2838 40.3899 43.5458 40.5972 43.8733C40.8045 44.2012 40.9411 44.512 40.9958 44.8122C41.0562 45.0758 41.089 45.3445 41.0941 45.6148C41.0974 46.1298 40.9796 46.6384 40.7502 47.0995C40.5309 47.5493 40.1651 47.9111 39.713 48.1255C39.2397 48.3528 38.7208 48.4686 38.1958 48.4643V48.4588V48.4585Z" fill="white"/>
</g>
<g clip-path="url(#clip6_33_132)">
<path d="M41 10H65V34H41V10Z" fill="#CABCF8" fill-opacity="0.3"/>
<path d="M59.7114 21.9657C59.6801 20.3246 59.0088 18.7608 57.8406 17.6078C56.6724 16.4548 55.0999 15.804 53.4585 15.7943C50.0428 15.7943 47.3471 18.58 47.3471 22H46.1428C46.1428 18.22 49.1257 15.2157 52.8843 15.1428C56.6385 15.1428 59.7671 18.2028 59.7671 21.9657H59.7114Z" fill="white"/>
<path d="M59.6429 22.0343C59.6429 19.2657 57.4487 17.05 54.6629 17.05C51.8944 17.05 49.9015 19.21 49.9015 22H48.5515C48.5515 18.8715 51.1058 16.42 54.2301 16.3472C57.2858 16.3472 59.7672 19.1929 59.8401 21.9615L59.6429 22.0343Z" fill="white"/>
<path d="M59.7113 21.9657C59.7113 19.9643 58.0056 18.3272 55.9571 18.3272C53.8913 18.3272 52.3999 19.9472 52.3999 22H51.1056C51.1056 19.5872 52.9571 17.6072 55.3613 17.6072C57.7699 17.6072 59.6942 19.6043 59.7671 21.9443H59.7113V21.9657ZM46.2885 22.0343C46.2528 22.87 46.3868 23.7042 46.6825 24.4865C46.9782 25.2689 47.4294 25.9832 48.0089 26.5864C48.5884 27.1895 49.2841 27.6689 50.054 27.9956C50.824 28.3223 51.6522 28.4895 52.4886 28.4872C53.325 28.4849 54.1522 28.3131 54.9203 27.9821C55.6884 27.6511 56.3815 27.1679 56.9576 26.5615C57.5338 25.9552 57.981 25.2384 58.2724 24.4544C58.5637 23.6704 58.6931 22.8355 58.6528 22H59.8571C59.8571 23.8113 59.1405 25.5489 57.8638 26.8337C56.5871 28.1184 54.854 28.8459 53.0428 28.8572C49.2885 28.8572 46.2328 25.7972 46.1599 22.0343H46.2885Z" fill="white"/>
<path d="M46.2885 21.9657C46.2885 24.7343 48.4785 26.95 51.2642 26.95C54.0499 26.95 56.0985 24.79 56.0299 22H57.3756C57.3756 25.1286 54.8256 27.6528 51.7699 27.6528C48.6413 27.6528 46.1599 24.8071 46.1599 22.0386L46.2885 21.9657Z" fill="white"/>
<path d="M46.2157 22.0343C46.2603 23.0048 46.6737 23.9218 47.3714 24.598C48.0691 25.2742 48.9985 25.6586 49.97 25.6729C52.04 25.6729 53.5271 24.0529 53.5271 22H54.8043C54.8043 24.4129 52.9528 26.3929 50.5443 26.3929C49.9733 26.3929 49.408 26.2799 48.8808 26.0605C48.3537 25.8411 47.8752 25.5196 47.4728 25.1145C47.0705 24.7093 46.7523 24.2286 46.5365 23.7C46.3208 23.1713 46.2117 22.6052 46.2157 22.0343Z" fill="white"/>
</g>
<path d="M0 5C0 2.23858 2.23858 0 5 0H29C31.7614 0 34 2.23858 34 5V29C34 31.7614 31.7614 34 29 34H5C2.23858 34 0 31.7614 0 29V5Z" fill="#CABCF8" fill-opacity="0.3"/>
<path d="M16.216 23.5402C16.2204 23.541 16.2229 23.5351 16.219 23.5327C14.9554 22.7832 14.0272 20.2586 14.0272 17.2624C14.0272 17.1521 14.0284 17.0437 14.0308 16.9352C14.0309 16.935 14.0312 16.9348 14.0314 16.935C14.0316 16.9352 14.0314 16.9356 14.0311 16.9356C10.505 16.4252 7.95295 15.03 7.86689 13.3787C7.86658 13.3728 7.85873 13.371 7.85591 13.3761C7.85571 13.3765 7.85547 13.3768 7.8552 13.3771C6.98906 14.3691 6.4944 15.5158 6.4944 16.7378C6.4944 20.3333 10.7802 23.2797 16.216 23.5402ZM4.85693 16.9995C4.85693 12.9771 10.2933 9.71436 16.9998 9.71436C23.7063 9.71436 29.1426 12.9765 29.1426 17.0001C29.1426 21.0236 23.7063 24.2858 16.9998 24.2858C10.2933 24.2858 4.85693 21.023 4.85693 16.9995ZM16.9998 10.7659C18.2936 10.7659 19.3946 12.5736 19.803 15.095C19.8032 15.0961 19.8046 15.0964 19.8051 15.0954C19.8053 15.0951 19.8056 15.0948 19.806 15.0948C22.3241 14.7335 24.0876 13.9005 24.0876 12.931C24.0876 11.6305 20.914 10.5771 16.9998 10.5771C13.0855 10.5771 9.91201 11.6305 9.91201 12.931C9.91201 13.9005 11.6755 14.7335 14.1936 15.0948C14.194 15.0948 14.1943 15.0951 14.1944 15.0954C14.1949 15.0964 14.1964 15.0961 14.1966 15.095C14.605 12.573 15.706 10.7659 16.9998 10.7659ZM17.7836 23.5402C23.2194 23.2797 27.5058 20.3333 27.5058 16.7378C27.5058 15.5158 27.0105 14.3691 26.1444 13.3771C26.1441 13.3768 26.1439 13.3765 26.1437 13.3761C26.1409 13.371 26.133 13.3728 26.1327 13.3787C26.0466 15.03 23.4952 16.4252 19.9684 16.9356C19.9681 16.9356 19.9678 16.9352 19.968 16.935C19.9682 16.9346 19.9687 16.9348 19.9687 16.9352C19.9712 17.044 19.9724 17.1529 19.9724 17.2624C19.9724 20.259 19.0433 22.7839 17.7807 23.533C17.7769 23.5353 17.7793 23.541 17.7836 23.5402ZM16.9998 15.2861C17.5793 15.2861 18.143 15.2631 18.6824 15.2194C18.6827 15.2194 18.6829 15.2198 18.6827 15.22C18.6825 15.2202 18.6821 15.2201 18.6821 15.2198C18.4136 13.6022 17.7616 12.4605 16.9998 12.4605C16.238 12.4605 15.5861 13.6014 15.317 15.2194C15.317 15.2195 15.3168 15.2195 15.3168 15.2194C15.3168 15.2194 15.3168 15.2193 15.3169 15.2193C15.856 15.263 16.42 15.2861 16.9998 15.2861ZM16.9998 21.2774C17.9741 21.2774 18.7693 19.4099 18.8121 17.0669C18.8121 17.0663 18.8127 17.0659 18.8133 17.0661C18.8142 17.0664 18.814 17.0677 18.8131 17.0678C18.2272 17.118 17.6207 17.144 16.9998 17.144C16.379 17.144 15.7734 17.118 15.1871 17.0678C15.1861 17.0678 15.1859 17.0664 15.1869 17.066C15.1875 17.0658 15.1881 17.0663 15.1881 17.0669C15.2303 19.4099 16.0249 21.2774 16.9998 21.2774Z" fill="white"/>
<defs>
<clipPath id="clip0_33_132">
<rect x="57" y="285" width="19" height="19" rx="5" fill="white"/>
</clipPath>
<clipPath id="clip1_33_132">
<rect x="23" y="290" width="19" height="19" rx="5" fill="white"/>
</clipPath>
<clipPath id="clip2_33_132">
<rect x="15" y="46" width="18" height="18" rx="5" fill="white"/>
</clipPath>
<clipPath id="clip3_33_132">
<rect y="306" width="33" height="33" rx="5" fill="white"/>
</clipPath>
<clipPath id="clip4_33_132">
<rect x="39" y="300" width="25" height="25" rx="5" fill="white"/>
</clipPath>
<clipPath id="clip5_33_132">
<rect x="28" y="34" width="18" height="18" rx="5" fill="white"/>
</clipPath>
<clipPath id="clip6_33_132">
<rect x="41" y="10" width="24" height="24" rx="5" fill="white"/>
</clipPath>
</defs>
</svg>
