<svg width="104" height="328" viewBox="0 0 104 328" fill="none" xmlns="http://www.w3.org/2000/svg">
<g clip-path="url(#clip0_33_132)">
<path d="M0 272H56V328H0V272Z" fill="#CABCF8" fill-opacity="0.3"/>
<path d="M39.936 296.704C40.451 293.21 37.806 291.347 34.163 290.082L35.343 285.374L32.466 284.658L31.318 289.25L29.022 288.701L30.186 284.076L27.308 283.361L26.127 288.086L24.297 287.653V287.637L20.321 286.638L19.555 289.716C19.555 289.716 21.685 290.216 21.651 290.232C22.816 290.532 23.016 291.297 22.983 291.896L21.651 297.286L21.951 297.386L21.635 297.319L19.755 304.856C19.622 305.206 19.255 305.738 18.441 305.521C18.474 305.571 16.361 305.022 16.361 305.022L14.931 308.3L18.674 309.231L20.72 309.764L19.522 314.539L22.4 315.254L23.565 310.529L25.877 311.128L24.697 315.836L27.574 316.552L28.755 311.777C33.663 312.708 37.357 312.343 38.905 307.9C40.152 304.324 38.838 302.277 36.259 300.913C38.139 300.497 39.553 299.249 39.919 296.703H39.936V296.704ZM33.364 305.921C32.482 309.498 26.46 307.551 24.514 307.085L26.094 300.747C28.04 301.246 34.296 302.194 33.364 305.904V305.921ZM34.246 296.654C33.447 299.898 28.423 298.251 26.809 297.852L28.239 292.112C29.87 292.512 35.094 293.277 34.246 296.654Z" fill="white"/>
</g>
<g clip-path="url(#clip1_33_132)">
<path d="M43 247H88V292H43V247Z" fill="#CABCF8" fill-opacity="0.3"/>
<path d="M67.9107 279.071V283.161H63.8929V276.274L55.0536 259.054H59.6339L66.8822 272.505C68.1197 275.093 67.9107 275.977 67.9107 279.071ZM75.9464 259.054L70.7554 270.304H66.2875L71.5107 259.054H75.9464Z" fill="white"/>
</g>
<g clip-path="url(#clip2_33_132)">
<path d="M29 47H67V85H29V47Z" fill="#CABCF8" fill-opacity="0.3"/>
<path d="M50.5243 77.5234C48.8414 77.5234 47.62 77.1319 46.8363 76.3366C46.0763 75.5413 45.6841 74.689 45.6841 73.7784C45.6841 73.4323 45.7648 73.1562 45.891 72.9254C46.0233 72.6988 46.2147 72.5115 46.4447 72.3839C46.6754 72.257 46.9632 72.1885 47.297 72.1885C47.6316 72.1885 47.9308 72.257 48.1615 72.3839C48.4051 72.5192 48.605 72.7212 48.7377 72.9662C48.8704 73.2112 48.9304 73.4889 48.9107 73.7669C48.9107 74.1815 48.8184 74.5045 48.6223 74.7691C48.446 75.0042 48.2 75.1776 47.9193 75.2645C48.15 75.5875 48.5184 75.8067 49.0253 75.9451C49.5207 76.0828 50.0283 76.152 50.5236 76.152C51.1945 76.1596 51.8524 75.967 52.4134 75.599C52.9902 75.2305 53.3933 74.6775 53.6579 73.963C53.9348 73.2369 54.061 72.4185 54.061 71.5086C54.061 70.5057 53.9233 69.6642 53.6233 68.9619C53.3878 68.3064 52.9422 67.7472 52.3558 67.3713C51.8013 67.0318 51.1622 66.8561 50.5121 66.8644C50.0975 66.8644 49.5553 67.0375 48.9107 67.3829L47.7354 67.9597V67.3829L53.035 60.5714H45.9643V67.6482C45.9643 69.2177 47.1694 70.3102 48.5646 69.2842C48.9586 68.9981 49.3016 68.6475 49.5791 68.2474C49.6092 68.1819 49.6569 68.126 49.7168 68.0859C49.7647 68.0434 49.8259 68.019 49.8898 68.0167C49.9937 68.0167 50.109 68.0743 50.2359 68.1659C50.3594 68.2976 50.4293 68.4699 50.4313 68.6504C50.4152 68.7747 50.392 68.8979 50.3621 69.0196C50.0953 69.6413 49.6553 70.1732 49.0946 70.5518C47.751 71.4455 45.3108 71.307 44.1634 70.1603C43.852 69.8233 43.6111 69.4275 43.4548 68.9961C43.2986 68.5647 43.2301 68.1064 43.2534 67.6482V60.5714H39.1786V59.2142H43.2534V55.8214L42.5714 55.1428V54.4764H44.8894L45.9643 55.8214V59.2142H55.41L56.3777 60.0082L50.4198 65.8622C50.778 65.721 51.1546 65.6316 51.5381 65.5969C52.1827 65.5969 52.9203 65.8045 53.7272 66.2076C54.534 66.5991 55.1562 67.1522 55.5939 67.8436C56.0316 68.5358 56.32 69.1919 56.4353 69.8257C56.5629 70.3822 56.6321 70.9494 56.643 71.5201C56.65 72.6074 56.4012 73.681 55.9169 74.6544C55.4539 75.604 54.6817 76.3678 53.7272 76.8204C52.7281 77.3002 51.6325 77.5448 50.5243 77.5357V77.5241V77.5234Z" fill="white"/>
</g>
<g clip-path="url(#clip3_33_132)">
<path d="M65 15H104V54H65V15Z" fill="#CABCF8" fill-opacity="0.3"/>
<path d="M95.4061 34.4443C95.3553 31.7776 94.2643 29.2363 92.366 27.3628C90.4677 25.4892 87.9124 24.4316 85.2452 24.4157C79.6947 24.4157 75.3141 28.9425 75.3141 34.5H73.3572C73.3572 28.3575 78.2043 23.4756 84.312 23.3572C90.4127 23.3572 95.4966 28.3297 95.4966 34.4443H95.4061Z" fill="white"/>
<path d="M95.2947 34.5557C95.2947 30.0568 91.729 26.4562 87.2022 26.4562C82.7033 26.4562 79.4649 29.9662 79.4649 34.5H77.2711C77.2711 29.4161 81.4218 25.4325 86.4988 25.3141C91.4643 25.3141 95.4967 29.9384 95.615 34.4373L95.2947 34.5557Z" fill="white"/>
<path d="M95.4061 34.4443C95.4061 31.1919 92.6343 28.5316 89.3054 28.5316C85.9486 28.5316 83.525 31.1641 83.525 34.5H81.4218C81.4218 30.5791 84.4304 27.3616 88.3373 27.3616C92.2513 27.3616 95.3782 30.6069 95.4966 34.4094H95.4061V34.4443ZM73.5939 34.5557C73.5359 35.9136 73.7537 37.2692 74.2342 38.5405C74.7147 39.8119 75.4479 40.9727 76.3896 41.9527C77.3313 42.9328 78.4618 43.7118 79.713 44.2427C80.9641 44.7736 82.3099 45.0454 83.6691 45.0416C85.0282 45.0379 86.3725 44.7586 87.6207 44.2208C88.8689 43.6829 89.9951 42.8977 90.9313 41.9124C91.8675 40.9271 92.5943 39.7623 93.0678 38.4883C93.5412 37.2143 93.7515 35.8575 93.6859 34.5H95.6429C95.6429 37.4432 94.4785 40.2669 92.4039 42.3546C90.3292 44.4423 87.5128 45.6244 84.5697 45.6428C78.4689 45.6428 73.5034 40.6703 73.385 34.5557H73.5939Z" fill="white"/>
<path d="M73.5939 34.4443C73.5939 38.9433 77.1527 42.5438 81.6795 42.5438C86.2063 42.5438 89.5352 39.0338 89.4238 34.5001H91.6105C91.6105 39.584 87.4668 43.6859 82.5013 43.6859C77.4173 43.6859 73.385 39.0617 73.385 34.5627L73.5939 34.4443Z" fill="white"/>
<path d="M73.4755 34.5557C73.5481 36.1329 74.2198 37.6229 75.3535 38.7217C76.4872 39.8205 77.9976 40.4452 79.5762 40.4684C82.94 40.4684 85.3566 37.8359 85.3566 34.5H87.4319C87.4319 38.4209 84.4234 41.6384 80.5094 41.6384C79.5816 41.6384 78.663 41.4549 77.8064 41.0983C76.9498 40.7418 76.1722 40.2193 75.5184 39.561C74.8646 38.9027 74.3475 38.1215 73.9969 37.2625C73.6463 36.4034 73.4691 35.4835 73.4755 34.5557Z" fill="white"/>
</g>
<path d="M0 7C0 3.13401 3.13401 0 7 0H42C45.866 0 49 3.13401 49 7V42C49 45.866 45.866 49 42 49H7C3.13401 49 0 45.866 0 42V7Z" fill="#CABCF8" fill-opacity="0.3"/>
<path d="M23.4035 33.9317C21.5678 32.873 20.2159 29.219 20.2159 24.8781C20.2159 24.7189 20.2176 24.5622 20.2211 24.4056L20.2229 24.4074C15.119 23.6689 11.4309 21.6441 11.3364 19.251L11.3215 19.2781C10.0729 20.7079 9.35975 22.3607 9.35975 24.1221C9.35975 29.3039 15.5364 33.5502 23.3703 33.9256L23.4035 33.9317ZM6.99988 24.4992C6.99988 18.7024 14.8346 14.0001 24.4999 14.0001C34.1651 14.0001 41.9999 18.7015 41.9999 24.5001C41.9999 30.2987 34.1651 35.0001 24.4999 35.0001C14.8346 35.0001 6.99988 30.2979 6.99988 24.4992ZM24.4999 15.5156C26.3654 15.5156 27.9526 18.1231 28.5406 21.7596L28.5433 21.7544C32.1728 21.2337 34.7146 20.0332 34.7146 18.6359C34.7146 16.7616 30.141 15.2435 24.4999 15.2435C18.8588 15.2435 14.2851 16.7616 14.2851 18.6359C14.2851 20.0332 16.827 21.2337 20.4565 21.7544L20.4591 21.7596C21.0471 18.1222 22.6344 15.5156 24.4999 15.5156ZM25.6295 33.9256C33.4634 33.5502 39.6409 29.3039 39.6409 24.1221C39.6409 22.3607 38.9269 20.7079 37.6783 19.2781L37.6634 19.251C37.5689 21.6441 33.8816 23.6689 28.7769 24.4074L28.7786 24.4047C28.7821 24.5622 28.7839 24.7197 28.7839 24.8781C28.7839 29.219 27.4311 32.873 25.5971 33.9317L25.6295 33.9256ZM24.4999 22.03C25.3355 22.03 26.1484 21.9967 26.9263 21.9337L26.9245 21.9355C26.5378 19.6036 25.598 17.9577 24.4999 17.9577C23.4018 17.9577 22.462 19.6027 22.0744 21.9355V21.9337C22.8514 21.9967 23.6643 22.03 24.4999 22.03ZM24.4999 30.6645C25.9043 30.6645 27.0505 27.9721 27.1118 24.5946L27.1188 24.5972C26.2726 24.6699 25.3968 24.7075 24.4999 24.7075C23.603 24.7075 22.728 24.6699 21.881 24.5972L21.8889 24.5946C21.9493 27.9721 23.0946 30.6645 24.4999 30.6645Z" fill="white"/>
<g clip-path="url(#clip4_33_132)">
<path d="M12 218H49V255H12V218Z" fill="#CABCF8" fill-opacity="0.3"/>
<path d="M25.5466 239.143C24.4248 239.143 23.3835 238.816 22.6884 238.211C22.4421 237.999 22.245 237.735 22.1107 237.439C21.9764 237.143 21.9082 236.821 21.9107 236.496C21.9107 235.865 22.1737 235.24 22.6884 234.785C23.3339 234.215 24.4736 233.858 25.5466 233.858C26.7346 233.858 27.6847 234.148 28.4115 234.787C28.6546 235 28.8489 235.263 28.9812 235.558C29.1136 235.852 29.1809 236.172 29.1786 236.495C29.1761 236.819 29.1068 237.138 28.9749 237.434C28.843 237.729 28.6514 237.994 28.4122 238.212C27.7343 238.82 26.6718 239.143 25.5466 239.143L25.546 238.446C26.1419 238.446 26.6943 238.246 27.0802 237.874C27.4634 237.504 27.6418 237.05 27.6418 236.495C27.6418 235.964 27.4488 235.466 27.0802 235.114C26.6996 234.75 26.1334 234.546 25.546 234.546C24.9566 234.546 24.3911 234.748 24.0098 235.114C23.6431 235.466 23.4502 235.965 23.4502 236.495C23.4502 237.024 23.6451 237.523 24.0098 237.874C24.3911 238.242 24.9546 238.446 25.546 238.446L25.5466 239.143ZM16.2253 234.221C16.7743 233.967 17.4212 233.857 17.9894 233.857C18.9937 233.858 19.8116 234.197 20.1017 234.354C20.2167 234.419 20.2781 234.34 20.2781 234.279V234.09H20.9256V235.716H20.3455C20.2958 235.476 20.1699 235.259 19.9867 235.096C19.8755 235.006 19.7531 234.93 19.6227 234.871C19.2771 234.713 18.734 234.561 18.0925 234.563C17.5507 234.563 17.03 234.667 16.7724 234.834C16.6098 234.939 16.5279 235.068 16.5279 235.222C16.5279 235.437 16.7076 235.525 16.7955 235.553C17.0862 235.646 17.813 235.708 18.2325 235.753C18.6329 235.797 19.4687 235.912 19.8387 236.006C20.029 236.055 20.2616 236.141 20.4096 236.212C20.5794 236.295 20.7413 236.401 20.8747 236.538C20.9725 236.639 21.25 236.971 21.25 237.505C21.25 238.062 20.9309 238.369 20.7855 238.488C20.5166 238.709 20.1863 238.852 19.9187 238.931C19.6346 239.014 19.2236 239.143 18.4585 239.143C17.9894 239.143 17.7462 239.085 17.369 239.003C17.0084 238.921 16.6569 238.804 16.3198 238.653C16.1989 238.596 16.1645 238.715 16.1645 238.743V238.996H15.447V237.128H16.0925C16.0925 237.35 16.1942 237.574 16.259 237.655C16.5193 237.983 16.7988 238.113 17.0651 238.21C17.295 238.296 17.9279 238.459 18.4545 238.459C19.1681 238.459 19.5645 238.271 19.622 238.248C19.6795 238.224 20.0105 238.113 20.0105 237.751C20.0105 237.387 19.6967 237.32 19.5097 237.271C19.2745 237.21 18.697 237.149 18.1103 237.085C17.519 237.021 16.925 236.925 16.6475 236.862C16.0264 236.722 15.7886 236.483 15.6412 236.343C15.6505 236.352 15.3036 236.022 15.3036 235.457C15.3036 234.832 15.7185 234.454 16.2253 234.221ZM41.5908 238.472C41.5683 238.479 41.452 238.483 41.4256 238.483H40.7913V239.143H44.048V238.482H43.3839C43.3575 238.482 43.2432 238.479 43.2201 238.471C43.156 238.449 43.0899 238.398 43.0701 238.344C43.0569 238.31 43.0569 238.223 43.0569 238.201V237.164C43.0569 237.139 43.0549 237.097 43.0787 237.066C43.1249 237.009 44.8831 234.862 44.9578 234.768C45.1216 234.562 45.2102 234.517 45.4269 234.517H46.0268V233.857H43.3443V234.518H43.7487C43.863 234.518 43.8993 234.651 43.8464 234.722C43.8372 234.733 42.7219 236.191 42.7087 236.206C42.6942 236.221 42.6856 236.217 42.6757 236.201C42.6651 236.186 41.5637 234.72 41.5637 234.72C41.4857 234.613 41.5465 234.517 41.6377 234.517H42.0321V233.857H38.7589V234.518H39.3391C39.5921 234.518 39.7586 234.696 39.8531 234.811C39.9297 234.903 41.6502 237.005 41.6925 237.066C41.7308 237.122 41.7322 237.133 41.7322 237.159V238.201C41.7322 238.223 41.7275 238.322 41.7189 238.345C41.7081 238.374 41.691 238.4 41.6689 238.422C41.6467 238.444 41.6201 238.461 41.5908 238.472ZM35.7857 237.161L32.3368 233.857H29.5089V234.518H30.0653C30.4676 234.518 30.5 234.768 30.5 234.967V238.059C30.5 238.244 30.5099 238.483 30.2542 238.483H29.5684V239.157L32.8257 239.143V238.482H32.1089C31.8234 238.482 31.8248 238.347 31.8214 238.059V235.509L35.8287 239.143H37.1072V234.9C37.1111 234.592 37.1508 234.518 37.4573 234.518H38.0982V233.857H34.7814V234.518H35.4382C35.7395 234.518 35.7904 234.638 35.7943 234.928L35.7857 237.161Z" fill="white"/>
</g>
<g clip-path="url(#clip5_33_132)">
<path d="M55 183H93V221H55V183Z" fill="#CABCF8" fill-opacity="0.3"/>
<path d="M82.1422 210.14H65.8585V193.86H82.1422V210.14Z" fill="#CABCF8" fill-opacity="0.3"/>
<path d="M57.7142 202L65.8571 210.142V193.856L57.7142 202ZM65.8571 210.142L82.1428 210.143L73.9999 202L65.8571 210.142ZM73.9999 202L82.1428 193.857H65.8571L73.9999 202ZM82.1428 193.857V210.143L90.2857 202L82.1428 193.857Z" fill="white"/>
</g>
<defs>
<clipPath id="clip0_33_132">
<rect y="272" width="56" height="56" rx="7" fill="white"/>
</clipPath>
<clipPath id="clip1_33_132">
<rect x="43" y="247" width="45" height="45" rx="7" fill="white"/>
</clipPath>
<clipPath id="clip2_33_132">
<rect x="29" y="47" width="38" height="38" rx="7" fill="white"/>
</clipPath>
<clipPath id="clip3_33_132">
<rect x="65" y="15" width="39" height="39" rx="7" fill="white"/>
</clipPath>
<clipPath id="clip4_33_132">
<rect x="12" y="218" width="37" height="37" rx="7" fill="white"/>
</clipPath>
<clipPath id="clip5_33_132">
<rect x="55" y="183" width="38" height="38" rx="7" fill="white"/>
</clipPath>
</defs>
</svg>
