<svg width="67" height="336" viewBox="0 0 67 336" fill="none" xmlns="http://www.w3.org/2000/svg">
<g clip-path="url(#clip0_33_132)">
<path d="M49 278H65V294H49V278Z" fill="#CABCF8" fill-opacity="0.3"/>
<path d="M56.134 288.883C55.2634 290.114 53.9706 290.567 53.5226 290.114C53.152 289.74 53.1917 288.783 53.7763 287.569C53.2751 286.95 53.0011 286.179 53 285.383C53 283.495 54.5391 282 56.438 282C56.9903 282 57.5103 282.126 57.9706 282.352C58.5926 281.829 59.1751 281.41 59.6163 281.143C59.4671 281.293 59.2883 281.467 59.0883 281.661C58.8019 281.937 58.5185 282.216 58.238 282.499C58.734 282.798 59.1438 283.222 59.4276 283.727C59.7113 284.233 59.8593 284.803 59.8571 285.383C59.8571 285.931 59.7291 286.453 59.5009 286.919C61.2026 287.462 64.1429 287.651 64.1429 287.651L58.8694 287.818C58.2514 288.456 57.3923 288.857 56.438 288.857C55.6337 288.857 54.8937 288.572 54.308 288.1C53.9437 289.128 54.162 289.53 54.5669 289.586C55.0457 289.652 55.7857 289.235 56.134 288.883ZM54.4169 287.816C54.9574 288.272 55.6586 288.545 56.438 288.545C57.2549 288.545 57.9814 288.246 58.5269 287.75L57.3526 285.716C57.3526 285.716 58.1334 286.374 59.0937 286.772C59.1354 286.789 59.1786 286.806 59.2229 286.823C59.4415 286.374 59.5542 285.882 59.5523 285.383C59.5523 284.208 58.952 283.233 58.0266 282.715C57.5134 283.243 56.9703 283.842 56.4823 284.485L56.4223 284.564C55.62 285.62 55.1323 286.261 54.5669 287.475C54.5111 287.595 54.4611 287.709 54.4169 287.816ZM53.9203 287.286C54.0097 287.118 54.1091 286.947 54.2189 286.772C54.8829 285.712 55.2909 285.086 56.134 284.133C56.6291 283.577 57.1594 283.054 57.7214 282.565C57.3149 282.396 56.8785 282.31 56.438 282.312C54.67 282.312 53.3049 283.625 53.3049 285.383C53.3049 286.099 53.5317 286.758 53.9203 287.286Z" fill="white"/>
</g>
<g clip-path="url(#clip1_33_132)">
<path d="M35 289H53V307H35V289Z" fill="#CABCF8" fill-opacity="0.3"/>
<path d="M40.9198 295.656L40.4662 295.439L40.7597 296.063L40.4126 296.824L40.8931 296.552L41.4797 297.339L41.373 296.362L41.9332 296.063L41.373 295.819L41.453 294.977L40.9198 295.656ZM42.6369 303.143C40.4492 302.541 38.8572 300.51 38.8572 298.093C38.8572 295.201 41.1599 292.857 44 292.857C46.8405 292.857 49.1429 295.201 49.1429 298.093C49.1464 299.429 48.6421 300.716 47.7321 301.695C47.7321 301.695 47.3744 301.222 47.2674 301.059C47.1606 300.896 47.0006 300.876 47.0276 300.652C47.0597 300.381 47.2674 300.109 47.2674 300.109L47.3207 300.326C47.3207 300.326 48.8182 298.724 48.6546 297.638C48.5473 296.932 48.1211 296.851 48.1211 296.851C48.1211 296.851 48.2275 296.199 47.2407 295.71C46.2539 295.222 45.5072 295.303 45.5072 295.303L45.9341 295.629C45.9341 295.629 45.4204 295.536 45.1604 295.602L44.947 295.656L45.2234 295.792C45.2234 295.792 44.6606 295.818 44.2803 296.118C43.9833 296.352 43.9602 296.498 43.9602 296.498H44.1736C44.1736 296.498 43.9869 296.824 43.9335 297.15C43.8801 297.475 43.9036 297.564 43.9036 297.564C43.9036 297.564 43.9036 297.716 43.6336 297.92C43.4359 298.069 43.2437 298.103 43.1836 298.185C43.093 298.308 43.3732 298.507 43.3732 298.507C43.3732 298.507 43.3536 298.653 43.2235 298.816C43.164 298.89 43.3736 299.02 43.4433 299.05L43.2736 299.193C43.2736 299.193 43.2135 299.254 43.3135 299.325C43.4134 299.396 43.3736 299.549 43.3334 299.712C43.2935 299.875 43.2135 300.129 43.7535 300.19C44.2935 300.251 44.3237 300.353 44.3739 300.425C44.4237 300.496 44.7339 301.392 44.5738 301.534C44.3536 301.731 43.9672 301.672 43.2235 302.186C42.6629 302.573 42.6369 303.143 42.6369 303.143Z" fill="white"/>
<path d="M44.3537 297.349C44.3537 297.349 44.5337 297.625 44.6037 297.675C44.6738 297.726 44.6937 297.798 44.6436 297.808C44.5934 297.818 44.2434 297.808 44.2434 297.808L44.2637 297.747C44.2637 297.747 44.2334 297.665 44.2637 297.584C44.2936 297.502 44.3736 297.472 44.3736 297.472L44.3537 297.349Z" fill="white"/>
</g>
<g clip-path="url(#clip2_33_132)">
<path d="M13 302H33V322H13V302Z" fill="#CABCF8" fill-opacity="0.3"/>
<path d="M20.5883 309.698H25.5115L24.7936 307.772C24.7657 307.693 24.7147 307.624 24.6472 307.575L20.5883 309.698ZM20.5747 307.412C20.7493 306.944 21.1329 306.643 21.5558 306.643H24.4665C24.8897 306.643 25.2736 306.944 25.4479 307.412L26.1654 309.338C26.3804 309.916 26.0329 310.571 25.5115 310.571H20.5115C19.99 310.571 19.6422 309.916 19.8572 309.338L20.5747 307.412ZM16.655 314.698H21.5683L20.8511 312.772C20.823 312.693 20.7717 312.624 20.704 312.575L16.655 314.698ZM16.6415 312.412C16.8161 311.944 17.2 311.643 17.6225 311.643H20.524C20.9468 311.643 21.3304 311.944 21.505 312.412L22.2225 314.338C22.4379 314.916 22.09 315.571 21.5679 315.571H16.5775C16.0561 315.571 15.7086 314.916 15.924 314.338L16.6415 312.412ZM29.4593 314.698H24.5129L28.595 312.575C28.6586 312.62 28.7104 312.688 28.7422 312.772L29.4593 314.698ZM25.4797 311.643C25.0568 311.643 24.6732 311.944 24.499 312.412L23.7811 314.338C23.5665 314.916 23.914 315.571 24.4358 315.571H29.4593C29.9808 315.571 30.3286 314.916 30.1133 314.338L29.3954 312.412C29.2222 311.944 28.8379 311.643 28.4154 311.643H25.4797Z" fill="white"/>
</g>
<g clip-path="url(#clip3_33_132)">
<path d="M0 7H23V30H0V7Z" fill="#CABCF8" fill-opacity="0.3"/>
<path d="M19.4149 16.8572C17.9552 16.8572 16.8393 17.6396 16.8393 19.0027C16.8393 20.1527 17.8546 20.9643 19.2173 20.9643C20.2523 20.9643 21.1111 20.1918 21.3572 19.7042C21.3572 19.5523 21.2093 19.4894 21.0717 19.4894C20.8347 19.8657 20.164 20.1527 19.8889 20.1417C18.2411 20.0792 17.9749 19.3991 17.9552 18.6886C17.924 17.9139 18.7343 17.2432 19.4252 17.2938C19.8281 17.3254 19.9673 18.0064 20.3205 18.2491C20.431 18.3115 20.6865 18.3012 20.8545 18.2709C20.983 18.2491 21.3268 18.1682 21.3268 17.863C21.3268 17.6092 21.0216 17.3254 20.7263 17.1418C20.4306 17.0001 19.7693 16.8572 19.4149 16.8572ZM9.37252 19.8644C9.37252 20.4965 9.21357 20.8317 8.71045 20.8616L8.72236 20.9643C9.5635 20.9545 10.4182 20.9643 11.2388 20.945L11.2487 20.8929C10.8692 20.8929 10.5763 20.4846 10.5763 19.977V18.275C10.5763 17.8581 11.0766 17.5919 11.4191 17.6236C11.9489 17.6729 12.2414 18.0191 12.2414 18.3259V19.9971C12.2414 20.5068 12.0902 20.8226 11.7 20.8514V20.945H14.0074V20.8727C13.6645 20.8317 13.4242 20.5154 13.4242 20.0369V18.2844C13.4242 17.9082 13.7462 17.6536 14.3179 17.6437C14.8198 17.6326 15.1205 18.0105 15.1205 18.367V19.9552C15.1205 20.4965 14.9603 20.8317 14.5598 20.8727V20.945C15.4018 20.9545 16.0918 20.9545 16.9247 20.945V20.8929C16.4844 20.8929 16.3349 20.5971 16.3349 19.977V18.2236C16.3349 17.6437 16.0228 16.9504 15.15 16.9504C14.5598 16.9504 14.1253 17.2453 13.8781 17.3287C13.7068 17.3985 13.5856 17.4798 13.5441 17.4798C13.4661 17.4798 13.3766 17.4297 13.2649 17.3077C13.0533 17.081 12.6743 16.9504 12.2718 16.9504C11.76 16.9504 11.2487 17.2453 11.0068 17.3287C10.9788 17.3381 10.7977 17.4297 10.7768 17.4297C10.7377 17.4297 10.5763 17.4297 10.5763 17.41C10.5763 16.9212 10.5866 16.8572 10.5866 16.8572H10.2551C10.157 16.8572 9.98325 17.0017 9.78406 17.081C9.54297 17.1845 9.0612 17.1734 8.86282 17.2264V17.5714L9.38238 17.6733V18.3464L9.37252 19.8644Z" fill="white"/>
<path d="M7.10204 20.8945C7.99411 20.8547 8.85168 20.6629 8.85168 19.8102C8.85168 19.1888 8.16455 18.7962 7.43841 18.4857C6.97102 18.2943 6.29457 18.0134 6.29457 17.7924C6.29457 17.5312 6.80961 17.0293 7.30575 17.431L8.16414 18.1436L8.56007 18.0635L8.33911 16.9997C8.13539 17.0096 7.99411 17.0202 7.25482 16.8987C6.34386 16.7685 5.26286 17.2211 5.26286 18.0635C5.26286 18.6261 6.08264 19.0171 6.73034 19.2788C7.08355 19.4291 7.71113 19.6501 7.71113 19.9905C7.71113 20.322 7.1238 20.4136 6.79113 20.4136C6.22434 20.4136 5.59595 19.6595 5.59595 19.6595H5.22384L5.42591 20.7853C5.49491 20.7237 5.74914 20.7339 5.80048 20.7545C5.9812 20.8231 6.63875 20.9253 7.10204 20.8945ZM4.95852 17.4815V16.9595L3.85739 16.9693C3.71693 16.9693 3.72597 16.9393 3.72597 16.7586L3.73664 16.0448L3.18054 16.0358C3.00927 16.4161 2.79652 16.6683 2.67577 16.7184L1.64282 17.1685V17.4909L2.02889 17.502C2.20139 17.502 2.27122 17.4909 2.27122 17.6926V19.8102C2.27122 20.4538 2.62443 20.9253 3.53622 20.945C4.22129 20.9643 4.63734 20.6629 4.92977 20.3824L4.84927 20.1109C4.72647 20.1922 4.62748 20.262 4.46443 20.262C3.68695 20.262 3.70707 19.6595 3.70707 19.1268V17.6926C3.70707 17.4811 3.72555 17.4811 3.86807 17.4811H4.95852V17.4815Z" fill="white"/>
</g>
<g clip-path="url(#clip4_33_132)">
<path d="M33 0H67V34H33V0Z" fill="#CABCF8" fill-opacity="0.3"/>
<path fill-rule="evenodd" clip-rule="evenodd" d="M49.9697 25.4393C51.7486 25.4393 53.394 24.8929 54.754 23.9579C55.0575 24.2736 55.4097 24.5408 55.8043 24.7351C54.3657 25.8194 52.6533 26.4813 50.8593 26.6463C49.0654 26.8113 47.2609 26.4729 45.6486 25.6692C44.0363 24.8655 42.68 23.6282 41.732 22.0963C40.784 20.5644 40.2817 18.7985 40.2817 16.997C40.2817 15.1955 40.784 13.4296 41.732 11.8977C42.68 10.3658 44.0363 9.12856 45.6486 8.32482C47.2609 7.52109 49.0654 7.18273 50.8593 7.34775C52.6533 7.51276 54.3657 8.17461 55.8043 9.25898C55.4106 9.45846 55.0551 9.72563 54.754 10.0483C53.6639 9.30002 52.4132 8.81837 51.1029 8.64214C49.7925 8.4659 48.4591 8.60002 47.21 9.03367C45.961 9.46732 44.8313 10.1884 43.9121 11.1387C42.9929 12.089 42.3098 13.2421 41.9179 14.5048C41.526 15.7676 41.4363 17.1047 41.6561 18.4085C41.8758 19.7123 42.3987 20.9462 43.1828 22.0108C43.9669 23.0754 44.9901 23.9409 46.1701 24.5375C47.35 25.134 48.6536 25.4451 49.9757 25.4454L49.9697 25.4393ZM56.6786 11.9183C56.5873 11.9179 56.4971 11.938 56.4146 11.9773C56.3322 12.0166 56.2597 12.074 56.2025 12.1452C56.1453 12.2164 56.1049 12.2995 56.0844 12.3885C56.0638 12.4774 56.0635 12.5699 56.0836 12.659C56.1043 12.7533 56.1472 12.8412 56.2087 12.9156C56.2701 12.9901 56.3485 13.0487 56.4372 13.0868C56.5259 13.1248 56.6224 13.1412 56.7187 13.1345C56.815 13.1278 56.9083 13.0983 56.9909 13.0483C57.0735 12.9984 57.143 12.9294 57.1936 12.8472C57.2442 12.7651 57.2745 12.672 57.282 12.5758C57.2894 12.4795 57.2738 12.3829 57.2365 12.2939C57.1991 12.2049 57.1411 12.1261 57.0672 12.064C56.9588 11.9713 56.8212 11.9197 56.6786 11.9183ZM54.8572 12.5254C54.8572 12.8047 54.9179 13.0718 55.0272 13.3025L53.9343 13.9643H46.3572C46.1961 13.9643 46.0417 14.0283 45.9279 14.1422C45.814 14.256 45.75 14.4105 45.75 14.5715C45.75 14.7325 45.814 14.8869 45.9279 15.0008C46.0417 15.1147 46.1961 15.1786 46.3572 15.1786H54.2682L55.9136 14.1829C56.2709 14.3483 56.6722 14.3934 57.0574 14.3115C57.4425 14.2296 57.7907 14.0252 58.0499 13.7287C58.309 13.4323 58.4651 13.0599 58.4948 12.6673C58.5245 12.2746 58.4262 11.883 58.2146 11.5509C58.0029 11.2189 57.6894 10.9644 57.321 10.8255C56.9525 10.6867 56.549 10.6709 56.1709 10.7807C55.7927 10.8904 55.4604 11.1198 55.2235 11.4343C54.9867 11.7488 54.8581 12.1317 54.8572 12.5254ZM57.0854 16.3929C57.2286 15.9878 57.5104 15.6464 57.881 15.429C58.2516 15.2116 58.6872 15.1322 59.1106 15.2049C59.5341 15.2775 59.9183 15.4975 60.1952 15.826C60.4722 16.1545 60.6241 16.5704 60.6241 17C60.6241 17.4297 60.4722 17.8456 60.1952 18.1741C59.9183 18.5026 59.5341 18.7226 59.1106 18.7952C58.6872 18.8679 58.2516 18.7885 57.881 18.5711C57.5104 18.3537 57.2286 18.0123 57.0854 17.6072H45.1429C44.9819 17.6072 44.8274 17.5432 44.7136 17.4294C44.5997 17.3155 44.5357 17.1611 44.5357 17C44.5357 16.839 44.5997 16.6846 44.7136 16.5707C44.8274 16.4569 44.9819 16.3929 45.1429 16.3929H57.0854ZM56.0836 21.3593C56.1008 21.262 56.1415 21.1704 56.2021 21.0923C56.2628 21.0143 56.3416 20.9523 56.4317 20.9116C56.5217 20.8709 56.6204 20.8529 56.719 20.859C56.8177 20.8651 56.9133 20.8952 56.9977 20.9466C57.0821 20.9981 57.1526 21.0694 57.2031 21.1543C57.2537 21.2392 57.2828 21.3352 57.2878 21.4339C57.2929 21.5326 57.2738 21.6311 57.2321 21.7207C57.1905 21.8103 57.1276 21.8884 57.049 21.9483C56.9519 22.0244 56.8339 22.0691 56.7108 22.0765C56.5876 22.0838 56.4652 22.0535 56.3597 21.9896C56.2542 21.9256 56.1707 21.8311 56.1203 21.7185C56.0699 21.6059 56.055 21.4806 56.0775 21.3593H56.0836ZM55.0211 20.7158C54.8921 20.9933 54.8354 21.2988 54.8562 21.6041C54.877 21.9094 54.9746 22.2045 55.14 22.4619C55.3054 22.7194 55.5331 22.9308 55.8021 23.0767C56.0711 23.2225 56.3726 23.298 56.6786 23.2961C56.9506 23.2939 57.2186 23.2308 57.463 23.1114C57.7073 22.9921 57.9219 22.8195 58.0909 22.6064C58.2598 22.3933 58.3789 22.145 58.4394 21.8799C58.4999 21.6147 58.5003 21.3394 58.4404 21.074C58.3806 20.8087 58.2621 20.5602 58.0937 20.3467C57.9252 20.1331 57.7111 19.96 57.467 19.8401C57.2229 19.7201 56.9551 19.6563 56.6831 19.6534C56.4111 19.6505 56.142 19.7086 55.8954 19.8233L54.25 18.8215H46.3572C46.1961 18.8215 46.0417 18.8854 45.9279 18.9993C45.814 19.1132 45.75 19.2676 45.75 19.4286C45.75 19.5896 45.814 19.7441 45.9279 19.8579C46.0417 19.9718 46.1961 20.0358 46.3572 20.0358H53.91L55.0211 20.7158ZM59.4107 17C59.4107 17.1595 59.3474 17.3123 59.2347 17.4251C59.122 17.5378 58.9691 17.6011 58.8097 17.6011C58.6503 17.6011 58.4974 17.5378 58.3846 17.4251C58.2719 17.3123 58.2086 17.1595 58.2086 17C58.2086 16.8406 58.2719 16.6877 58.3846 16.575C58.4974 16.4623 58.6503 16.399 58.8097 16.399C58.9691 16.399 59.122 16.4623 59.2347 16.575C59.3474 16.6877 59.4107 16.8406 59.4107 17Z" fill="white"/>
</g>
<g clip-path="url(#clip5_33_132)">
<path d="M39 308H67V336H39V308Z" fill="#CABCF8" fill-opacity="0.3"/>
<path d="M53 331.5L43 321.635L46.815 315.5H59.185L63 321.635L53 331.5ZM54 322.5V321.28C55.8 321.37 57.48 321.72 58 322.175C57.395 322.705 55.23 323.09 53 323.09C50.77 323.09 48.605 322.705 48 322.175C48.515 321.72 50.2 321.375 52 321.275V322.5H54ZM48 322.17V322.905C48.515 323.36 50.195 323.705 52 323.805V326.5H54V323.8C55.8 323.71 57.485 323.36 58 322.905V321.44C57.485 320.985 55.8 320.635 54 320.54V319.5H57V318H49V319.5H52V320.54C50.195 320.635 48.515 320.985 48 321.44V322.17Z" fill="white"/>
</g>
<g clip-path="url(#clip6_33_132)">
<path d="M21 30H40V49H21V30Z" fill="#CABCF8" fill-opacity="0.3"/>
<path d="M35.8065 40.5076C35.5181 40.5076 35.3654 40.3414 35.3654 40.0428L35.3688 39.9817H36.4986C36.5224 39.9037 36.536 39.8155 36.536 39.7374C36.536 39.371 36.2951 39.0928 35.7963 39.0928C35.5466 39.1019 35.3096 39.2048 35.1323 39.3808C34.955 39.5568 34.8505 39.7932 34.8395 40.0428C34.8395 40.5076 35.1686 40.7892 35.7149 40.7892C35.9592 40.7892 36.1967 40.7146 36.3663 40.5958L36.2611 40.3549C36.1254 40.4499 35.9694 40.5042 35.8065 40.5076ZM35.8065 39.3541C35.9727 39.3541 36.0576 39.4558 36.0576 39.6764L36.0542 39.7442H35.4095C35.4774 39.5067 35.6301 39.3574 35.8031 39.3574L35.8065 39.3541ZM31.1786 38.8791C31.1786 38.4549 30.8224 38.1428 30.2863 38.1428H29.2481L28.4644 40.8571H29.1192L29.4076 39.8562H29.9776C30.629 39.8562 31.1786 39.4626 31.1786 38.8791ZM29.7265 39.5373H29.5026L29.8113 38.4617H30.0488C30.3474 38.4617 30.5136 38.6517 30.5136 38.9028C30.5136 39.3066 30.1777 39.5373 29.7265 39.5373ZM30.4424 42.5501H31.0327V42.5535L31.8979 39.4999H32.5154L32.149 40.8571H32.7461L33.2008 39.1607H31.9929L32.0913 38.7535C32.1252 38.6212 32.1829 38.4007 32.2644 38.1428C32.3492 37.8816 32.5019 37.7153 32.7122 37.7153C32.814 37.7153 32.8751 37.7628 32.8751 37.8408C32.8717 37.9223 32.8004 37.9732 32.8004 38.1089C32.8004 38.2649 32.9361 38.3837 33.1092 38.3837C33.3263 38.3837 33.4994 38.2141 33.4994 38.0037C33.4994 37.678 33.2177 37.4642 32.7869 37.4642C32.1592 37.4642 31.7452 37.8612 31.4874 38.7874M34.9685 39.1607H33.3772L33.2992 39.4999H34.0694L32.8785 40.8571H34.5647L34.6427 40.5178H33.7742L34.9685 39.1607ZM38.2867 39.1607C38.0627 39.1607 37.8219 39.2964 37.6352 39.5712L37.7472 39.1607H37.1161L36.6072 40.8571H37.2315L37.4656 40.1514C37.5572 39.8291 37.7845 39.5169 37.9372 39.5169C38.1001 39.5169 38.039 39.7951 38.3172 39.7951C38.5208 39.7951 38.6429 39.6255 38.6429 39.466C38.6429 39.2828 38.4835 39.1607 38.2867 39.1607Z" fill="white"/>
<path d="M22.8592 39.1608C23.3749 38.9267 24.2673 38.8622 25.4107 38.9911L25.733 37.8715C24.0841 37.6713 22.883 37.8952 22.6794 38.6043L22.6726 38.6349C22.6387 38.8011 22.7066 38.9775 22.8592 39.1574V39.1608Z" fill="white"/>
<path d="M27.9621 38.8248C27.4464 39.0555 26.5507 39.12 25.4107 38.9911L25.0884 40.1107C26.7339 40.3109 27.9384 40.087 28.142 39.3779L28.1487 39.3507C28.1827 39.1811 28.1148 39.0047 27.9621 38.8248Z" fill="white"/>
<path d="M23.7823 36.1072L23.4565 37.2268C25.3871 37.3591 27.3482 38.1022 27.9623 38.8249C28.1998 38.7231 28.3558 38.5806 28.4169 38.4109L28.1455 39.3507L28.1421 39.3779L28.3592 38.6179C28.4305 38.3804 28.4644 38.2549 28.4644 38.1565C28.4644 37.2947 26.0657 36.2429 23.7823 36.1072Z" fill="white"/>
<path d="M27.9622 38.8248C28.1148 39.0046 28.1827 39.1844 28.1488 39.3507L28.4202 38.4075C28.3523 38.5771 28.1997 38.7196 27.9622 38.8248Z" fill="white"/>
<path d="M22.8593 39.1608C22.6218 39.2626 22.4657 39.4017 22.4013 39.5713C22.3707 39.6833 22.3572 39.7579 22.3572 39.8224C22.3572 40.6909 24.7559 41.7427 27.0393 41.8751L27.3616 40.7554C25.4345 40.6197 23.4768 39.8834 22.8593 39.1608Z" fill="white"/>
<path d="M22.8594 39.1608C22.7067 38.9775 22.6389 38.8011 22.6728 38.6315L22.4014 39.5645V39.5747C22.4658 39.405 22.6219 39.2625 22.8594 39.1574V39.1608Z" fill="white"/>
</g>
<g clip-path="url(#clip7_33_132)">
<path d="M37 42H56V61H37V42Z" fill="#CABCF8" fill-opacity="0.3"/>
<path d="M49.1492 46.58C48.8785 45.4465 48.2002 44.5239 48.1066 44.375C47.9587 44.5864 47.4178 45.4013 47.1423 46.3025C46.8421 47.3115 46.7976 48.2059 46.9014 49.0833C47.0042 49.9637 47.3934 50.8686 47.3934 50.8686C47.5997 51.3402 47.9091 51.8498 48.111 52.0995C48.4062 51.7321 49.0851 50.6365 49.2968 49.2081C49.4145 48.4108 49.4196 47.7136 49.1492 46.58ZM48.1066 51.8152C47.9736 51.576 47.767 51.1217 47.7473 50.4146C47.7422 49.735 48.0275 49.1491 48.111 49.0276C48.1853 49.1491 48.4309 49.6587 48.4605 50.3556C48.4736 50.8649 48.3515 51.3685 48.1066 51.8152ZM49.0708 48.5041C49.0607 48.9377 49.0064 49.3954 48.9378 49.6692C48.9623 49.1976 48.9032 48.5353 48.7902 48.0155C48.6769 47.4988 48.357 46.6319 48.1015 46.2333C47.8657 46.6146 47.5749 47.3634 47.4226 48.0118C47.2699 48.6602 47.2652 49.447 47.2652 49.6831C47.2244 49.4853 47.1233 48.7745 47.1518 48.0637C47.1756 47.4781 47.3194 46.8711 47.3978 46.5939C47.6981 45.6684 48.0377 45.0753 48.1015 44.9816C48.1653 45.0753 48.5931 45.8068 48.8147 46.5729C48.9926 47.2009 49.0789 47.8514 49.0708 48.5041Z" fill="white"/>
<path d="M48.566 52.5178H46.5075V53.684C46.5092 53.684 46.5109 53.6806 46.5126 53.6806C46.9975 53.2158 47.7839 53.2158 48.2694 53.6806C48.7543 54.1417 48.7543 54.8939 48.2694 55.3583C48.2671 55.3617 48.265 55.3617 48.2627 55.3651C48.2603 55.3651 48.2576 55.3689 48.2555 55.3723C47.7717 55.8303 47.1393 56.059 46.5075 56.059C45.8724 56.059 45.2372 55.83 44.7531 55.3655C43.8991 54.5508 43.798 53.2853 44.4491 52.3628C44.5366 52.2383 44.6377 52.1202 44.7531 52.0093C45.2372 51.5448 45.8649 51.3161 46.5001 51.3161V48.1404C44.0599 48.1404 42.0894 50.0299 42.0894 52.3631C42.0894 54.6964 44.0674 56.5893 46.5075 56.5893C47.7799 56.5893 49.0868 56.0725 49.8929 55.2511V52.5178H48.566Z" fill="white"/>
</g>
<defs>
<clipPath id="clip0_33_132">
<rect x="49" y="278" width="16" height="16" rx="5" fill="white"/>
</clipPath>
<clipPath id="clip1_33_132">
<rect x="35" y="289" width="18" height="18" rx="5" fill="white"/>
</clipPath>
<clipPath id="clip2_33_132">
<rect x="13" y="302" width="20" height="20" rx="5" fill="white"/>
</clipPath>
<clipPath id="clip3_33_132">
<rect y="7" width="23" height="23" rx="5" fill="white"/>
</clipPath>
<clipPath id="clip4_33_132">
<rect x="33" width="34" height="34" rx="5" fill="white"/>
</clipPath>
<clipPath id="clip5_33_132">
<rect x="39" y="308" width="28" height="28" rx="5" fill="white"/>
</clipPath>
<clipPath id="clip6_33_132">
<rect x="21" y="30" width="19" height="19" rx="5" fill="white"/>
</clipPath>
<clipPath id="clip7_33_132">
<rect x="37" y="42" width="19" height="19" rx="5" fill="white"/>
</clipPath>
</defs>
</svg>
