<svg width="246" height="401" viewBox="0 0 246 401" fill="none" xmlns="http://www.w3.org/2000/svg">
<g clip-path="url(#clip0_33_132)">
<path d="M34 23H110V99H34V23Z" fill="#CABCF8" fill-opacity="0.3"/>
<path d="M98.1534 55.5714C93.3302 55.5714 89.6428 58.1568 89.6428 62.6611C89.6428 66.4611 92.9977 69.1428 97.5007 69.1428C100.921 69.1428 103.758 66.5901 104.571 64.9791C104.571 64.477 104.083 64.2693 103.628 64.2693C102.845 65.5125 100.629 66.4611 99.7196 66.4245C94.2747 66.2182 93.3953 63.9708 93.3302 61.6229C93.227 59.0633 95.9047 56.8471 98.1874 57.0141C99.5187 57.1186 99.9788 59.3687 101.146 60.1708C101.511 60.3771 102.355 60.3431 102.91 60.2427C103.335 60.1708 104.471 59.9034 104.471 58.8951C104.471 58.0563 103.463 57.1186 102.487 56.5119C101.51 56.0437 99.3247 55.5714 98.1534 55.5714ZM64.9699 65.5084C64.9699 67.5971 64.4447 68.7045 62.7822 68.8036L62.8216 69.1428C65.601 69.1103 68.4252 69.1428 71.1368 69.0791L71.1694 68.9067C69.9154 68.9067 68.9477 67.5577 68.9477 65.8803V60.2563C68.9477 58.8788 70.6007 57.9993 71.7326 58.1038C73.4833 58.2667 74.4496 59.4108 74.4496 60.4246V65.9468C74.4496 67.631 73.9502 68.6746 72.6609 68.7696V69.0791H80.2853V68.8402C79.1521 68.7045 78.3582 67.6595 78.3582 66.0784V60.2875C78.3582 59.0443 79.4222 58.2029 81.3113 58.1703C82.9697 58.1337 83.9632 59.3823 83.9632 60.5603V65.8083C83.9632 67.5971 83.4339 68.7045 82.1107 68.8402V69.0791C84.8928 69.1103 87.1728 69.1103 89.9251 69.0791V68.9067C88.4702 68.9067 87.9762 67.9296 87.9762 65.8803V60.0866C87.9762 58.1703 86.9448 55.8795 84.0609 55.8795C82.1107 55.8795 80.6748 56.8539 79.8578 57.1294C79.2919 57.3601 78.8915 57.6288 78.7544 57.6288C78.4966 57.6288 78.2007 57.4633 77.8316 57.0602C77.1327 56.3111 75.88 55.8795 74.55 55.8795C72.859 55.8795 71.1694 56.8539 70.37 57.1294C70.2777 57.1606 69.6792 57.4633 69.61 57.4633C69.4811 57.4633 68.9477 57.4633 68.9477 57.3981C68.9477 55.7831 68.9817 55.5714 68.9817 55.5714H67.8864C67.5621 55.5714 66.988 56.0491 66.3298 56.3111C65.5332 56.6531 63.9412 56.6164 63.2857 56.7915V57.9315L65.0025 58.2681V60.4924L64.9699 65.5084Z" fill="white"/>
<path d="M57.4676 68.9122C60.4153 68.7805 63.249 68.1467 63.249 65.3293C63.249 63.276 60.9785 61.9785 58.5791 60.9525C57.0347 60.3201 54.7995 59.3918 54.7995 58.6617C54.7995 57.7985 56.5013 56.1401 58.1408 57.4674L60.9772 59.822L62.2855 59.5574L61.5553 56.0424C60.8822 56.075 60.4153 56.1102 57.9725 55.7085C54.9623 55.2783 51.3903 56.7739 51.3903 59.5574C51.3903 61.4167 54.0992 62.7087 56.2394 63.5732C57.4065 64.0699 59.4803 64.8 59.4803 65.9251C59.4803 67.0203 57.5395 67.323 56.4403 67.323C54.5674 67.323 52.491 64.8312 52.491 64.8312H51.2614L51.9291 68.5512C52.1571 68.3476 52.9972 68.3815 53.1668 68.4494C53.764 68.676 55.9368 69.014 57.4676 68.9122ZM50.3847 57.6343V55.9094L46.7462 55.942C46.282 55.942 46.3119 55.8429 46.3119 55.2457L46.3472 52.887L44.5096 52.8572C43.9437 54.1139 43.2407 54.9472 42.8417 55.1128L39.4285 56.6002V57.6655L40.7042 57.7022C41.2742 57.7022 41.5049 57.6655 41.5049 58.3319V65.3293C41.5049 67.456 42.672 69.014 45.6849 69.0791C47.9486 69.1429 49.3234 68.1467 50.2897 67.2198L50.0237 66.3228C49.6179 66.5915 49.2908 66.8222 48.752 66.8222C46.183 66.8222 46.2495 64.8312 46.2495 63.071V58.3319C46.2495 57.633 46.3105 57.633 46.7815 57.633H50.3847V57.6343Z" fill="white"/>
</g>
<g clip-path="url(#clip1_33_132)">
<path d="M160 0H246V86H160V0Z" fill="#CABCF8" fill-opacity="0.3"/>
<path fill-rule="evenodd" clip-rule="evenodd" d="M202.923 64.3464C207.423 64.3464 211.585 62.9643 215.025 60.5993C215.793 61.3979 216.683 62.0736 217.681 62.565C214.043 65.3078 209.711 66.9819 205.173 67.3993C200.636 67.8167 196.072 66.9608 191.994 64.9279C187.915 62.8949 184.485 59.7653 182.087 55.8905C179.689 52.0157 178.418 47.5491 178.418 42.9923C178.418 38.4355 179.689 33.9689 182.087 30.0941C184.485 26.2193 187.915 23.0897 191.994 21.0568C196.072 19.0238 200.636 18.168 205.173 18.5853C209.711 19.0027 214.043 20.6768 217.681 23.4196C216.686 23.9242 215.786 24.6 215.025 25.4161C212.267 23.5235 209.104 22.3052 205.79 21.8594C202.475 21.4136 199.102 21.7529 195.943 22.8497C192.784 23.9466 189.926 25.7705 187.601 28.1743C185.276 30.578 183.548 33.4945 182.557 36.6885C181.566 39.8826 181.339 43.2648 181.895 46.5626C182.45 49.8604 183.773 52.9815 185.756 55.6743C187.74 58.3671 190.328 60.5562 193.312 62.0652C196.297 63.5742 199.594 64.3609 202.939 64.3618L202.923 64.3464ZM219.893 30.1461C219.662 30.145 219.434 30.1961 219.225 30.2955C219.017 30.3948 218.833 30.54 218.689 30.72C218.544 30.9001 218.442 31.1104 218.39 31.3355C218.338 31.5605 218.337 31.7943 218.388 32.0196C218.44 32.2581 218.549 32.4807 218.704 32.6689C218.86 32.8571 219.058 33.0054 219.282 33.1017C219.507 33.198 219.751 33.2394 219.994 33.2225C220.238 33.2056 220.474 33.1308 220.683 33.0045C220.892 32.8781 221.067 32.7037 221.195 32.4959C221.324 32.288 221.4 32.0526 221.419 31.8091C221.438 31.5657 221.398 31.3213 221.304 31.0962C221.209 30.871 221.063 30.6717 220.876 30.5146C220.602 30.2801 220.254 30.1497 219.893 30.1461ZM215.286 31.6818C215.286 32.3882 215.439 33.0639 215.716 33.6475L212.951 35.3214H193.786C193.378 35.3214 192.988 35.4832 192.7 35.7712C192.412 36.0592 192.25 36.4498 192.25 36.8571C192.25 37.2644 192.412 37.655 192.7 37.9431C192.988 38.2311 193.378 38.3928 193.786 38.3928H213.796L217.958 35.8743C218.862 36.2926 219.877 36.4067 220.851 36.1996C221.825 35.9925 222.706 35.4753 223.361 34.7255C224.017 33.9757 224.412 33.0337 224.487 32.0406C224.562 31.0475 224.313 30.0568 223.778 29.217C223.243 28.3771 222.45 27.7333 221.518 27.3821C220.586 27.0308 219.565 26.991 218.609 27.2686C217.652 27.5462 216.811 28.1263 216.212 28.9219C215.613 29.7175 215.288 30.6858 215.286 31.6818ZM220.922 41.4643C221.284 40.4396 221.997 39.576 222.934 39.0261C223.872 38.4762 224.973 38.2754 226.045 38.4592C227.116 38.643 228.087 39.1995 228.788 40.0304C229.488 40.8614 229.873 41.9132 229.873 43C229.873 44.0868 229.488 45.1386 228.788 45.9695C228.087 46.8005 227.116 47.357 226.045 47.5408C224.973 47.7246 223.872 47.5238 222.934 46.9739C221.997 46.424 221.284 45.5604 220.922 44.5357H190.714C190.307 44.5357 189.916 44.3739 189.628 44.0859C189.34 43.7979 189.179 43.4073 189.179 43C189.179 42.5927 189.34 42.2021 189.628 41.9141C189.916 41.6261 190.307 41.4643 190.714 41.4643H220.922ZM218.388 54.0264C218.431 53.7803 218.534 53.5484 218.688 53.3511C218.841 53.1537 219.04 52.9968 219.268 52.8939C219.496 52.791 219.746 52.7453 219.995 52.7608C220.245 52.7763 220.487 52.8524 220.7 52.9826C220.913 53.1128 221.092 53.2931 221.22 53.5079C221.348 53.7226 221.421 53.9654 221.434 54.2151C221.447 54.4647 221.398 54.7137 221.293 54.9404C221.188 55.1672 221.029 55.3648 220.83 55.5161C220.584 55.7085 220.286 55.8217 219.974 55.8403C219.663 55.859 219.353 55.7824 219.086 55.6206C218.819 55.4588 218.608 55.2196 218.481 54.9348C218.353 54.6501 218.315 54.3332 218.373 54.0264H218.388ZM215.7 52.3986C215.374 53.1004 215.231 53.8734 215.283 54.6456C215.336 55.4178 215.583 56.1641 216.001 56.8153C216.419 57.4665 216.995 58.0014 217.676 58.3703C218.356 58.7392 219.119 58.9301 219.893 58.9254C220.581 58.9197 221.259 58.7601 221.877 58.4582C222.495 58.1563 223.038 57.7198 223.465 57.1807C223.892 56.6417 224.194 56.0137 224.347 55.343C224.5 54.6723 224.501 53.9759 224.349 53.3048C224.198 52.6337 223.898 52.0051 223.472 51.4649C223.046 50.9248 222.504 50.487 221.887 50.1836C221.27 49.8802 220.592 49.7188 219.904 49.7115C219.216 49.7041 218.536 49.8509 217.912 50.1411L213.75 47.6071H193.786C193.378 47.6071 192.988 47.7689 192.7 48.0569C192.412 48.3449 192.25 48.7356 192.25 49.1428C192.25 49.5501 192.412 49.9408 192.7 50.2288C192.988 50.5168 193.378 50.6786 193.786 50.6786H212.89L215.7 52.3986ZM226.804 43C226.804 43.4032 226.643 43.7899 226.358 44.075C226.073 44.3602 225.686 44.5203 225.283 44.5203C224.88 44.5203 224.493 44.3602 224.208 44.075C223.923 43.7899 223.763 43.4032 223.763 43C223.763 42.5968 223.923 42.2101 224.208 41.9249C224.493 41.6398 224.88 41.4796 225.283 41.4796C225.686 41.4796 226.073 41.6398 226.358 41.9249C226.643 42.2101 226.804 42.5968 226.804 43Z" fill="white"/>
</g>
<g clip-path="url(#clip2_33_132)">
<path d="M157 312H246V401H157V312Z" fill="#CABCF8" fill-opacity="0.3"/>
<path d="M201.5 386.696L169.714 355.34L181.841 335.839H221.16L233.286 355.34L201.5 386.696ZM204.679 358.089V354.211C210.4 354.497 215.74 355.61 217.393 357.056C215.47 358.741 208.588 359.965 201.5 359.965C194.412 359.965 187.53 358.741 185.607 357.056C187.244 355.61 192.6 354.513 198.321 354.195V358.089H204.679ZM185.607 357.04V359.377C187.244 360.823 192.584 361.919 198.321 362.237V370.804H204.679V362.221C210.4 361.935 215.756 360.823 217.393 359.377V354.72C215.756 353.274 210.4 352.161 204.679 351.859V348.554H214.214V343.786H188.786V348.554H198.321V351.859C192.584 352.161 187.244 353.274 185.607 354.72V357.04Z" fill="white"/>
</g>
<g clip-path="url(#clip3_33_132)">
<path d="M110 254H178V322H110V254Z" fill="#CABCF8" fill-opacity="0.3"/>
<path d="M132.364 279.144L130.65 278.325L131.759 280.684L130.447 283.556L132.263 282.53L134.479 285.505L134.076 281.813L136.192 280.684L134.076 279.761L134.378 276.58L132.364 279.144ZM138.85 307.429C130.586 305.153 124.572 297.481 124.572 288.35C124.572 277.427 133.271 268.571 144 268.571C154.731 268.571 163.429 277.427 163.429 288.35C163.442 293.397 161.537 298.261 158.099 301.957C158.099 301.957 156.748 300.172 156.343 299.556C155.94 298.941 155.335 298.864 155.437 298.018C155.559 296.994 156.343 295.966 156.343 295.966L156.545 296.787C156.545 296.787 162.202 290.733 161.584 286.633C161.179 283.966 159.568 283.658 159.568 283.658C159.568 283.658 159.97 281.196 156.243 279.349C152.515 277.504 149.694 277.811 149.694 277.811L151.306 279.042C151.306 279.042 149.366 278.69 148.384 278.94L147.577 279.145L148.622 279.658C148.622 279.658 146.495 279.755 145.059 280.889C143.937 281.774 143.85 282.326 143.85 282.326H144.656C144.656 282.326 143.95 283.556 143.749 284.787C143.547 286.018 143.636 286.351 143.636 286.351C143.636 286.351 143.636 286.928 142.616 287.698C141.869 288.26 141.143 288.39 140.916 288.697C140.573 289.162 141.632 289.915 141.632 289.915C141.632 289.915 141.558 290.467 141.066 291.082C140.842 291.364 141.633 291.852 141.897 291.968L141.256 292.505C141.256 292.505 141.029 292.736 141.406 293.005C141.784 293.275 141.633 293.852 141.482 294.467C141.331 295.083 141.029 296.045 143.069 296.274C145.109 296.505 145.223 296.89 145.412 297.159C145.601 297.43 146.772 300.814 146.168 301.352C145.336 302.093 143.876 301.873 141.066 303.814C138.949 305.274 138.85 307.429 138.85 307.429Z" fill="white"/>
<path d="M145.336 285.542C145.336 285.542 146.016 286.582 146.28 286.774C146.545 286.965 146.62 287.235 146.431 287.274C146.242 287.311 144.919 287.274 144.919 287.274L144.996 287.043C144.996 287.043 144.882 286.736 144.996 286.427C145.109 286.12 145.411 286.005 145.411 286.005L145.336 285.542Z" fill="white"/>
</g>
<g clip-path="url(#clip4_33_132)">
<path d="M57 304H134V381H57V304Z" fill="#CABCF8" fill-opacity="0.3"/>
<path d="M86.2147 333.638H105.169L102.405 326.223C102.298 325.919 102.101 325.654 101.842 325.462L86.2147 333.638ZM86.1624 324.837C86.8348 323.033 88.3116 321.875 89.9396 321.875H101.146C102.775 321.875 104.253 323.033 104.924 324.837L107.687 332.252C108.514 334.477 107.177 337 105.169 337H85.9191C83.9116 337 82.5723 334.477 83.4001 332.252L86.1624 324.837ZM71.0718 352.888H89.9877L87.2267 345.473C87.1185 345.168 86.9211 344.903 86.6602 344.712L71.0718 352.888ZM71.0196 344.087C71.6919 342.283 73.1701 341.125 74.7967 341.125H85.9672C87.5952 341.125 89.0719 342.283 89.7443 344.087L92.5067 351.502C93.3358 353.727 91.9966 356.25 89.9863 356.25H70.7734C68.7659 356.25 67.4281 353.727 68.2572 351.502L71.0196 344.087ZM120.368 352.888H101.325L117.041 344.714C117.286 344.887 117.485 345.148 117.607 345.474L120.368 352.888ZM105.047 341.125C103.419 341.125 101.942 342.283 101.271 344.087L98.5072 351.502C97.6808 353.727 99.0187 356.25 101.028 356.25H120.368C122.376 356.25 123.715 353.727 122.886 351.502L120.122 344.087C119.455 342.283 117.976 341.125 116.349 341.125H105.047Z" fill="white"/>
</g>
<g clip-path="url(#clip5_33_132)">
<path d="M101 62H178V139H101V62Z" fill="#CABCF8" fill-opacity="0.3"/>
<path d="M161.005 104.584C159.836 104.584 159.218 103.91 159.218 102.7L159.231 102.453H163.81C163.906 102.136 163.961 101.779 163.961 101.463C163.961 99.9775 162.985 98.85 160.964 98.85C159.952 98.887 158.991 99.3038 158.273 100.017C157.554 100.731 157.13 101.688 157.086 102.7C157.086 104.584 158.42 105.725 160.634 105.725C161.624 105.725 162.586 105.422 163.274 104.941L162.847 103.965C162.297 104.35 161.665 104.57 161.005 104.584ZM161.005 99.9087C161.679 99.9087 162.023 100.321 162.023 101.215L162.009 101.49H159.396C159.671 100.527 160.29 99.9225 160.991 99.9225L161.005 99.9087ZM142.25 97.9838C142.25 96.265 140.806 95 138.634 95H134.426L131.25 106H133.904L135.073 101.944H137.382C140.022 101.944 142.25 100.349 142.25 97.9838ZM136.365 100.651H135.457L136.709 96.2925H137.671C138.881 96.2925 139.555 97.0625 139.555 98.08C139.555 99.7162 138.194 100.651 136.365 100.651ZM139.266 112.861H141.659V112.875L145.165 100.5H147.667L146.183 106H148.602L150.445 99.125H145.55L145.949 97.475C146.086 96.9387 146.32 96.045 146.65 95C146.994 93.9413 147.613 93.2675 148.465 93.2675C148.878 93.2675 149.125 93.46 149.125 93.7763C149.111 94.1063 148.822 94.3125 148.822 94.8625C148.822 95.495 149.372 95.9762 150.074 95.9762C150.954 95.9762 151.655 95.2888 151.655 94.4363C151.655 93.1163 150.514 92.25 148.768 92.25C146.224 92.25 144.546 93.8587 143.501 97.6125M157.609 99.125H151.16L150.844 100.5H153.965L149.139 106H155.972L156.289 104.625H152.769L157.609 99.125ZM171.056 99.125C170.149 99.125 169.172 99.675 168.416 100.789L168.87 99.125H166.312L164.25 106H166.78L167.729 103.14C168.1 101.834 169.021 100.569 169.64 100.569C170.3 100.569 170.053 101.696 171.18 101.696C172.005 101.696 172.5 101.009 172.5 100.362C172.5 99.62 171.854 99.125 171.056 99.125Z" fill="white"/>
<path d="M108.535 99.125C110.625 98.1762 114.241 97.915 118.875 98.4375L120.181 93.9C113.499 93.0887 108.631 93.9962 107.806 96.87L107.779 96.9937C107.641 97.6675 107.916 98.3825 108.535 99.1112V99.125Z" fill="white"/>
<path d="M129.215 97.7638C127.125 98.6988 123.495 98.96 118.875 98.4375L117.569 102.975C124.238 103.786 129.119 102.879 129.944 100.005L129.971 99.895C130.109 99.2075 129.834 98.4925 129.215 97.7638Z" fill="white"/>
<path d="M112.275 86.75L110.955 91.2875C118.779 91.8237 126.726 94.835 129.215 97.7638C130.178 97.3513 130.81 96.7738 131.058 96.0863L129.958 99.895L129.944 100.005L130.824 96.925C131.113 95.9625 131.25 95.4538 131.25 95.055C131.25 91.5625 121.529 87.3 112.275 86.75Z" fill="white"/>
<path d="M129.215 97.7638C129.834 98.4925 130.109 99.2213 129.971 99.895L131.071 96.0725C130.796 96.76 130.178 97.3375 129.215 97.7638Z" fill="white"/>
<path d="M108.535 99.125C107.572 99.5375 106.94 100.101 106.679 100.789C106.555 101.242 106.5 101.545 106.5 101.806C106.5 105.326 116.221 109.589 125.475 110.125L126.781 105.588C118.971 105.038 111.037 102.054 108.535 99.125Z" fill="white"/>
<path d="M108.535 99.125C107.916 98.3825 107.641 97.6675 107.779 96.98L106.679 100.761V100.802C106.94 100.115 107.572 99.5375 108.535 99.1112V99.125Z" fill="white"/>
</g>
<g clip-path="url(#clip6_33_132)">
<path d="M41 122H122V203H41V122Z" fill="#CABCF8" fill-opacity="0.3"/>
<path d="M92.7937 141.525C91.6395 136.693 88.7481 132.76 88.3489 132.125C87.7182 133.026 85.4126 136.5 84.2381 140.342C82.958 144.644 82.7685 148.457 83.2111 152.197C83.6494 155.951 85.3085 159.808 85.3085 159.808C86.1879 161.819 87.507 163.991 88.3677 165.056C89.626 163.489 92.5204 158.819 93.4229 152.729C93.9248 149.33 93.9465 146.358 92.7937 141.525ZM88.3489 163.844C87.7819 162.824 86.901 160.887 86.8171 157.873C86.7954 154.976 88.0118 152.478 88.3677 151.96C88.6844 152.478 89.7316 154.65 89.8575 157.621C89.9136 159.792 89.393 161.939 88.3489 163.844ZM92.4596 149.728C92.4162 151.577 92.1848 153.528 91.8926 154.695C91.9967 152.685 91.7451 149.861 91.2634 147.645C90.7803 145.442 89.4163 141.747 88.3272 140.047C87.3219 141.673 86.0823 144.865 85.4329 147.629C84.782 150.393 84.7617 153.748 84.7617 154.754C84.5881 153.911 84.1571 150.881 84.2786 147.851C84.3799 145.354 84.9931 142.766 85.3273 141.585C86.6074 137.639 88.0552 135.11 88.3272 134.711C88.5991 135.11 90.423 138.229 91.3675 141.495C92.1263 144.172 92.4941 146.945 92.4596 149.728Z" fill="white"/>
<path d="M90.3074 166.839H81.5319V171.811C81.5392 171.811 81.5464 171.796 81.5536 171.796C83.6206 169.815 86.9734 169.815 89.0432 171.796C91.1102 173.762 91.1102 176.969 89.0432 178.949C89.0331 178.963 89.0244 178.963 89.0143 178.978C89.0042 178.978 88.9926 178.994 88.9839 179.008C86.9213 180.961 84.2252 181.936 81.5319 181.936C78.8242 181.936 76.1165 180.959 74.0524 178.979C70.4118 175.506 69.9807 170.111 72.7564 166.178C73.1296 165.647 73.5607 165.144 74.0524 164.671C76.1165 162.691 78.7924 161.716 81.5001 161.716V148.177C71.0974 148.177 62.6965 156.233 62.6965 166.18C62.6965 176.127 71.1292 184.196 81.5319 184.196C86.956 184.196 92.5277 181.994 95.9644 178.492V166.839H90.3074Z" fill="white"/>
</g>
<g clip-path="url(#clip7_33_132)">
<path d="M0 245H67V312H0V245Z" fill="#CABCF8" fill-opacity="0.3"/>
<path d="M29.8736 290.571C26.2281 295.727 20.8143 297.624 18.9383 295.727C17.3865 294.16 17.5528 290.153 20.0007 285.07C17.9021 282.48 16.7548 279.249 16.75 275.916C16.75 268.01 23.1952 261.75 31.1466 261.75C33.4593 261.75 35.6368 262.279 37.5643 263.224C40.1689 261.035 42.6084 259.281 44.4557 258.161C43.8312 258.791 43.0822 259.518 42.2447 260.33C41.0456 261.487 39.8587 262.656 38.6841 263.838C40.7611 265.094 42.4773 266.866 43.6656 268.983C44.8538 271.099 45.4735 273.487 45.4643 275.915C45.4643 278.209 44.9283 280.398 43.9723 282.348C51.0983 284.621 63.4107 285.415 63.4107 285.415L41.3282 286.113C38.7404 288.786 35.1427 290.464 31.1466 290.464C27.7787 290.464 24.6799 289.271 22.2272 287.295C20.7018 291.6 21.6159 293.283 23.3112 293.516C25.3164 293.793 28.4152 292.045 29.8736 290.571ZM22.6831 286.106C24.9467 288.015 27.8828 289.159 31.1466 289.159C34.5672 289.159 37.6097 287.904 39.8937 285.828L34.9764 277.312C34.9764 277.312 38.2462 280.065 42.2674 281.732C42.4421 281.803 42.6228 281.875 42.8082 281.946C43.7239 280.068 44.1958 278.004 44.1877 275.915C44.1877 270.997 41.674 266.913 37.7988 264.742C35.65 266.956 33.3756 269.465 31.3321 272.155L31.0808 272.487C27.7213 276.908 25.6789 279.595 23.3112 284.678C23.0779 285.179 22.8685 285.655 22.6831 286.106ZM20.6037 283.884C20.9782 283.183 21.3945 282.465 21.854 281.733C24.6345 277.295 26.343 274.674 29.8736 270.684C31.947 268.355 34.1673 266.162 36.521 264.118C34.8187 263.408 32.9911 263.047 31.1466 263.057C23.7431 263.057 18.0266 268.554 18.0266 275.916C18.0266 278.916 18.9766 281.673 20.6037 283.884Z" fill="white"/>
</g>
<defs>
<clipPath id="clip0_33_132">
<rect x="34" y="23" width="76" height="76" rx="7" fill="white"/>
</clipPath>
<clipPath id="clip1_33_132">
<rect x="160" width="86" height="86" rx="7" fill="white"/>
</clipPath>
<clipPath id="clip2_33_132">
<rect x="157" y="312" width="89" height="89" rx="7" fill="white"/>
</clipPath>
<clipPath id="clip3_33_132">
<rect x="110" y="254" width="68" height="68" rx="7" fill="white"/>
</clipPath>
<clipPath id="clip4_33_132">
<rect x="57" y="304" width="77" height="77" rx="7" fill="white"/>
</clipPath>
<clipPath id="clip5_33_132">
<rect x="101" y="62" width="77" height="77" rx="7" fill="white"/>
</clipPath>
<clipPath id="clip6_33_132">
<rect x="41" y="122" width="81" height="81" rx="7" fill="white"/>
</clipPath>
<clipPath id="clip7_33_132">
<rect y="245" width="67" height="67" rx="7" fill="white"/>
</clipPath>
</defs>
</svg>
