<svg width="239" height="400" viewBox="0 0 239 400" fill="none" xmlns="http://www.w3.org/2000/svg">
<g clip-path="url(#clip0_33_132)">
<path d="M0 313H87V400H0V313Z" fill="#CABCF8" fill-opacity="0.3"/>
<path d="M62.0433 351.379C62.8434 345.951 58.7342 343.057 53.0746 341.092L54.9078 333.777L50.4382 332.665L48.6547 339.799L45.0877 338.946L46.896 331.761L42.4248 330.65L40.5901 337.991L37.747 337.318V337.293L31.57 335.741L30.38 340.523C30.38 340.523 33.6891 341.3 33.6363 341.325C35.4462 341.791 35.7569 342.979 35.7056 343.91L33.6363 352.284L34.1024 352.439L33.6114 352.335L30.6907 364.044C30.4841 364.588 29.9139 365.414 28.6493 365.077C28.7006 365.155 25.4179 364.302 25.4179 364.302L23.1963 369.395L29.0113 370.841L32.1899 371.669L30.3287 379.087L34.7999 380.198L36.6098 372.858L40.2017 373.788L38.3685 381.102L42.8381 382.215L44.6729 374.796C52.2978 376.243 58.0367 375.676 60.4416 368.773C62.3789 363.218 60.3375 360.038 56.3309 357.918C59.2516 357.272 61.4483 355.333 62.0169 351.378H62.0433V351.379ZM51.8333 365.699C50.463 371.256 41.1074 368.231 38.0842 367.507L40.5388 357.661C43.5621 358.436 53.2812 359.909 51.8333 365.672V365.699ZM53.2035 351.302C51.9622 356.342 44.1571 353.783 41.6496 353.163L43.8712 344.245C46.4051 344.867 54.5209 346.055 53.2035 351.302Z" fill="white"/>
</g>
<g clip-path="url(#clip1_33_132)">
<path d="M73 275H146V348H73V275Z" fill="#CABCF8" fill-opacity="0.3"/>
<path d="M113.411 327.026V333.661H106.893V322.489L92.5535 294.554H99.9838L111.742 316.375C113.75 320.573 113.411 322.007 113.411 327.026ZM126.446 294.554L118.025 312.804H110.777L119.251 294.554H126.446Z" fill="white"/>
</g>
<g clip-path="url(#clip2_33_132)">
<path d="M47 85H123V161H47V85Z" fill="#CABCF8" fill-opacity="0.3"/>
<path d="M90.0486 146.047C86.6829 146.047 84.24 145.264 82.6725 143.673C81.1525 142.083 80.3681 140.378 80.3681 138.557C80.3681 137.865 80.5296 137.312 80.782 136.851C81.0467 136.398 81.4294 136.023 81.8895 135.768C82.3509 135.514 82.9263 135.377 83.594 135.377C84.2631 135.377 84.8616 135.514 85.323 135.768C85.8102 136.039 86.21 136.442 86.4755 136.932C86.7409 137.422 86.8609 137.978 86.8213 138.534C86.8213 139.363 86.6367 140.009 86.2445 140.538C85.892 141.009 85.3999 141.355 84.8385 141.529C85.3 142.175 86.0369 142.613 87.0507 142.89C88.0414 143.166 89.0565 143.304 90.0472 143.304C91.389 143.319 92.7049 142.934 93.8269 142.198C94.9805 141.461 95.7866 140.355 96.3159 138.926C96.8696 137.474 97.122 135.837 97.122 134.017C97.122 132.011 96.8465 130.329 96.2467 128.924C95.7756 127.613 94.8843 126.495 93.7115 125.743C92.6027 125.064 91.3243 124.712 90.0242 124.729C89.195 124.729 88.1106 125.075 86.8213 125.766L84.4707 126.919V125.766L95.07 112.143H80.9286V126.297C80.9286 129.436 83.3389 131.621 86.1292 129.569C86.9172 128.996 87.6031 128.295 88.1581 127.495C88.2184 127.364 88.3137 127.252 88.4336 127.172C88.5294 127.087 88.6518 127.038 88.7797 127.033C88.9873 127.033 89.218 127.149 89.4718 127.332C89.7188 127.595 89.8586 127.94 89.8627 128.301C89.8303 128.549 89.7841 128.796 89.7242 129.039C89.1907 130.283 88.3106 131.347 87.1891 132.104C84.502 133.891 79.6217 133.614 77.3267 131.321C76.704 130.647 76.2222 129.855 75.9097 128.992C75.5972 128.129 75.4602 127.213 75.5068 126.297V112.143H67.3572V109.429H75.5068V102.643L74.1429 101.286V99.953H78.7789L80.9286 102.643V109.429H99.82L101.755 111.016L89.8396 122.725C90.5561 122.442 91.3092 122.263 92.0762 122.194C93.3655 122.194 94.8407 122.609 96.4543 123.415C98.068 124.198 99.3125 125.304 100.188 126.687C101.063 128.072 101.64 129.384 101.871 130.652C102.126 131.764 102.264 132.899 102.286 134.04C102.3 136.215 101.802 138.362 100.834 140.309C99.9078 142.208 98.3634 143.736 96.4543 144.641C94.4562 145.6 92.265 146.09 90.0486 146.071V146.048V146.047Z" fill="white"/>
</g>
<g clip-path="url(#clip3_33_132)">
<path d="M107 30H185V108H107V30Z" fill="#CABCF8" fill-opacity="0.3"/>
<path d="M167.812 68.8885C167.711 63.5551 165.529 58.4726 161.732 54.7254C157.935 50.9782 152.825 48.8631 147.49 48.8314C136.389 48.8314 127.628 57.8849 127.628 68.9999H123.714C123.714 56.7149 133.409 46.951 145.624 46.7142C157.825 46.7142 167.993 56.6592 167.993 68.8885H167.812Z" fill="white"/>
<path d="M167.589 69.1114C167.589 60.1135 160.458 52.9125 151.404 52.9125C142.407 52.9125 135.93 59.9325 135.93 69H131.542C131.542 58.8321 139.844 50.865 149.998 50.6282C159.929 50.6282 167.993 59.8767 168.23 68.8746L167.589 69.1114Z" fill="white"/>
<path d="M167.812 68.8886C167.812 62.384 162.269 57.0633 155.611 57.0633C148.897 57.0633 144.05 62.3283 144.05 69.0001H139.844C139.844 61.1583 145.861 54.7233 153.675 54.7233C161.503 54.7233 167.756 61.214 167.993 68.819H167.812V68.8886ZM124.188 69.1115C124.072 71.8273 124.507 74.5384 125.468 77.0812C126.429 79.6239 127.896 81.9455 129.779 83.9056C131.663 85.8657 133.924 87.4237 136.426 88.4855C138.928 89.5473 141.62 90.0909 144.338 90.0834C147.056 90.0758 149.745 89.5174 152.241 88.4417C154.738 87.366 156.99 85.7955 158.863 83.8249C160.735 81.8544 162.189 79.5248 163.136 76.9767C164.082 74.4287 164.503 71.7152 164.372 69.0001H168.286C168.286 74.8865 165.957 80.534 161.808 84.7094C157.658 88.8848 152.026 91.249 146.139 91.2858C133.938 91.2858 124.007 81.3408 123.77 69.1115H124.188Z" fill="white"/>
<path d="M124.188 68.8885C124.188 77.8864 131.305 85.0875 140.359 85.0875C149.413 85.0875 156.07 78.0675 155.848 69H160.221C160.221 79.1678 151.934 87.3718 142.003 87.3718C131.835 87.3718 123.77 78.1232 123.77 69.1253L124.188 68.8885Z" fill="white"/>
<path d="M123.951 69.1114C124.096 72.2658 125.44 75.2458 127.707 77.4434C129.974 79.641 132.995 80.8905 136.152 80.9368C142.88 80.9368 147.713 75.6718 147.713 69H151.864C151.864 76.8418 145.847 83.2768 138.019 83.2768C136.163 83.2768 134.326 82.9097 132.613 82.1967C130.9 81.4836 129.344 80.4387 128.037 79.122C126.729 77.8053 125.695 76.243 124.994 74.5249C124.293 72.8068 123.938 70.967 123.951 69.1114Z" fill="white"/>
</g>
<path d="M0 7C0 3.13401 3.13401 0 7 0H78C81.866 0 85 3.13401 85 7V78C85 81.866 81.866 85 78 85H7C3.13401 85 0 81.866 0 78V7Z" fill="#CABCF8" fill-opacity="0.3"/>
<path d="M40.5978 58.8613C37.4134 57.0247 35.0683 50.6861 35.0683 43.156C35.0683 42.8798 35.0713 42.6081 35.0774 42.3364L35.0804 42.3394C26.2268 41.0583 19.829 37.546 19.6651 33.3947L19.6393 33.4417C17.4733 35.9219 16.2362 38.7891 16.2362 41.8446C16.2362 50.8333 26.9508 58.1995 40.5402 58.8507L40.5978 58.8613ZM12.1426 42.4988C12.1426 32.443 25.7335 24.286 42.4997 24.286C59.266 24.286 72.8569 32.4415 72.8569 42.5003C72.8569 52.5591 59.266 60.7146 42.4997 60.7146C25.7335 60.7146 12.1426 52.5576 12.1426 42.4988ZM42.4997 26.9149C45.7358 26.9149 48.4892 31.4382 49.5092 37.7464L49.5137 37.7373C55.8098 36.8341 60.2192 34.7516 60.2192 32.3276C60.2192 29.0764 52.2853 26.4429 42.4997 26.4429C32.7141 26.4429 24.7803 29.0764 24.7803 32.3276C24.7803 34.7516 29.1896 36.8341 35.4857 37.7373L35.4903 37.7464C36.5103 31.4366 39.2637 26.9149 42.4997 26.9149ZM44.4593 58.8507C58.0487 58.1995 68.7647 50.8333 68.7647 41.8446C68.7647 38.7891 67.5262 35.9219 65.3602 33.4417L65.3344 33.3947C65.1704 37.546 58.7742 41.0583 49.919 42.3394L49.922 42.3349C49.9281 42.6081 49.9312 42.8813 49.9312 43.156C49.9312 50.6861 47.5845 57.0247 44.4031 58.8613L44.4593 58.8507ZM42.4997 38.2154C43.9493 38.2154 45.3594 38.1577 46.7087 38.0484L46.7057 38.0515C46.0348 34.0064 44.4046 31.1513 42.4997 31.1513C40.5948 31.1513 38.9646 34.0049 38.2922 38.0515V38.0484C39.6401 38.1577 41.0502 38.2154 42.4997 38.2154ZM42.4997 53.1936C44.9359 53.1936 46.9243 48.5232 47.0305 42.6642L47.0427 42.6688C45.5749 42.7948 44.0555 42.86 42.4997 42.86C40.9439 42.86 39.4261 42.7948 37.9568 42.6688L37.9704 42.6642C38.0752 48.5232 40.062 53.1936 42.4997 53.1936Z" fill="white"/>
<g clip-path="url(#clip4_33_132)">
<path d="M168 98H239V169H168V98Z" fill="#CABCF8" fill-opacity="0.3"/>
<path d="M203.5 156.321L209.205 124.625C214.615 124.625 216.298 124.716 216.544 127.148C216.544 127.148 220.173 125.789 222.003 123.028C214.861 119.706 207.684 119.554 207.684 119.554L203.5 124.625L199.316 119.554C199.316 119.554 192.14 119.703 184.998 123.028C186.826 125.788 190.457 127.148 190.457 127.148C190.705 124.714 192.421 124.629 197.795 124.625L203.5 156.321Z" fill="white"/>
<path d="M203.5 118.219C209.274 118.174 215.753 119.128 222.518 122.089C223.422 120.454 223.786 119.554 223.786 119.554C216.39 116.615 209.464 115.775 203.5 115.75C197.535 115.775 190.61 116.615 183.214 119.554C183.214 119.554 183.676 120.622 184.482 122.089C191.246 119.128 197.726 118.174 203.5 118.219Z" fill="white"/>
<path d="M203.5 156.321L209.205 124.625C214.615 124.625 216.297 124.716 216.543 127.148C216.543 127.148 220.173 125.789 222.003 123.028C214.861 119.706 207.684 119.554 207.684 119.554L203.5 124.625L199.316 119.554C199.316 119.554 192.14 119.703 184.998 123.028C186.826 125.788 190.457 127.148 190.457 127.148C190.704 124.714 192.421 124.629 197.794 124.625L203.5 156.321Z" fill="white"/>
<path d="M203.5 118.219C209.274 118.174 215.752 119.128 222.518 122.089C223.422 120.454 223.786 119.554 223.786 119.554C216.39 116.615 209.464 115.775 203.5 115.75C197.535 115.775 190.61 116.615 183.214 119.554C183.214 119.554 183.676 120.622 184.482 122.089C191.246 119.128 197.726 118.174 203.5 118.219Z" fill="white"/>
</g>
<g clip-path="url(#clip5_33_132)">
<path d="M35 225H98V288H35V225Z" fill="#CABCF8" fill-opacity="0.3"/>
<path d="M58.0659 261C56.1556 261 54.3826 260.444 53.1991 259.414C52.7798 259.052 52.4442 258.604 52.2155 258.099C51.9869 257.595 51.8707 257.047 51.875 256.493C51.875 255.419 52.3228 254.355 53.1991 253.579C54.2983 252.61 56.2389 252.001 58.0659 252.001C60.0886 252.001 61.7064 252.495 62.9439 253.583C63.3577 253.946 63.6886 254.393 63.914 254.895C64.1394 255.397 64.254 255.942 64.25 256.492C64.2458 257.043 64.1277 257.587 63.9031 258.09C63.6785 258.593 63.3523 259.044 62.945 259.415C61.7908 260.451 59.9818 261 58.0659 261L58.0648 259.813C59.0795 259.813 60.02 259.473 60.677 258.84C61.3295 258.21 61.6332 257.437 61.6332 256.492C61.6332 255.586 61.3047 254.739 60.677 254.14C60.029 253.521 59.0649 253.172 58.0648 253.172C57.0613 253.172 56.0983 253.517 55.4491 254.14C54.8247 254.739 54.4963 255.589 54.4963 256.491C54.4963 257.392 54.8281 258.241 55.4491 258.84C56.0983 259.467 57.0579 259.813 58.0648 259.813L58.0659 261ZM42.1944 252.619C43.1293 252.187 44.2306 252 45.1981 252C46.9081 252.002 48.3009 252.578 48.7948 252.846C48.9905 252.957 49.0951 252.822 49.0951 252.719V252.397H50.1976V255.165H49.2099C49.1252 254.756 48.911 254.386 48.599 254.109C48.4096 253.956 48.2013 253.827 47.9791 253.727C47.3907 253.457 46.466 253.198 45.3736 253.203C44.4511 253.203 43.5646 253.379 43.1259 253.664C42.8491 253.842 42.7096 254.062 42.7096 254.323C42.7096 254.69 43.0156 254.841 43.1652 254.888C43.6602 255.045 44.8977 255.152 45.6121 255.229C46.2939 255.303 47.717 255.499 48.347 255.66C48.671 255.742 49.067 255.888 49.319 256.009C49.6081 256.15 49.8837 256.331 50.111 256.565C50.2775 256.737 50.75 257.302 50.75 258.211C50.75 259.16 50.2066 259.682 49.9591 259.885C49.5013 260.262 48.9387 260.504 48.4831 260.639C47.9994 260.781 47.2996 261 45.9969 261C45.1981 261 44.7841 260.901 44.1418 260.762C43.5278 260.623 42.9294 260.423 42.3553 260.165C42.1494 260.07 42.0909 260.271 42.0909 260.319V260.749H40.8691V257.57H41.9682C41.9682 257.947 42.1415 258.328 42.2518 258.466C42.695 259.026 43.1709 259.246 43.6242 259.411C44.0157 259.558 45.0935 259.836 45.9901 259.836C47.2051 259.836 47.8801 259.515 47.978 259.476C48.0759 259.435 48.6395 259.246 48.6395 258.63C48.6395 258.011 48.1051 257.896 47.7868 257.813C47.3863 257.708 46.403 257.605 45.404 257.496C44.3971 257.388 43.3857 257.223 42.9132 257.117C41.8557 256.878 41.4508 256.471 41.1999 256.232C41.2156 256.248 40.625 255.686 40.625 254.725C40.625 253.659 41.3315 253.016 42.1944 252.619ZM85.3843 259.857C85.346 259.869 85.148 259.876 85.103 259.876H84.023V261H89.5681V259.875H88.4375C88.3925 259.875 88.1979 259.869 88.1585 259.856C88.0494 259.819 87.9369 259.732 87.9031 259.64C87.8806 259.583 87.8806 259.433 87.8806 259.397V257.631C87.8806 257.588 87.8772 257.516 87.9177 257.464C87.9965 257.366 90.9901 253.711 91.1172 253.551C91.3963 253.2 91.547 253.124 91.916 253.124H92.9375V252H88.37V253.125H89.0585C89.2531 253.125 89.315 253.352 89.225 253.473C89.2093 253.492 87.3102 255.975 87.2878 255.999C87.263 256.024 87.2484 256.017 87.2315 255.992C87.2135 255.965 85.3381 253.469 85.3381 253.469C85.2054 253.287 85.3089 253.123 85.4641 253.123H86.1357V252H80.5625V253.125H81.5502C81.9811 253.125 82.2646 253.428 82.4255 253.623C82.556 253.781 85.4855 257.361 85.5575 257.464C85.6227 257.56 85.625 257.578 85.625 257.622V259.397C85.625 259.434 85.6171 259.603 85.6025 259.641C85.584 259.691 85.5549 259.736 85.5172 259.773C85.4795 259.81 85.4342 259.839 85.3843 259.857ZM75.5 257.625L69.6275 252H64.8125V253.125H65.7597C66.4449 253.125 66.5 253.551 66.5 253.89V259.155C66.5 259.47 66.5169 259.876 66.0815 259.876H64.9137V261.025L70.46 261V259.875H69.2394C68.7534 259.875 68.7556 259.644 68.75 259.155V254.812L75.5731 261H77.75V253.775C77.7567 253.251 77.8242 253.125 78.3462 253.125H79.4375V252H73.79V253.125H74.9082C75.4212 253.125 75.5079 253.33 75.5146 253.823L75.5 257.625Z" fill="white"/>
</g>
<g clip-path="url(#clip6_33_132)">
<path d="M136 227H199V290H136V227Z" fill="#CABCF8" fill-opacity="0.3"/>
<path d="M180.999 271.996H154.002V245.005H180.999V271.996Z" fill="#CABCF8" fill-opacity="0.3"/>
<path d="M140.5 258.5L154 271.999V244.999L140.5 258.5ZM154 271.999L181 272L167.5 258.5L154 271.999ZM167.5 258.5L181 245H154L167.5 258.5ZM181 245V272L194.5 258.5L181 245Z" fill="white"/>
</g>
<defs>
<clipPath id="clip0_33_132">
<rect y="313" width="87" height="87" rx="7" fill="white"/>
</clipPath>
<clipPath id="clip1_33_132">
<rect x="73" y="275" width="73" height="73" rx="7" fill="white"/>
</clipPath>
<clipPath id="clip2_33_132">
<rect x="47" y="85" width="76" height="76" rx="7" fill="white"/>
</clipPath>
<clipPath id="clip3_33_132">
<rect x="107" y="30" width="78" height="78" rx="7" fill="white"/>
</clipPath>
<clipPath id="clip4_33_132">
<rect x="168" y="98" width="71" height="71" rx="7" fill="white"/>
</clipPath>
<clipPath id="clip5_33_132">
<rect x="35" y="225" width="63" height="63" rx="7" fill="white"/>
</clipPath>
<clipPath id="clip6_33_132">
<rect x="136" y="227" width="63" height="63" rx="7" fill="white"/>
</clipPath>
</defs>
</svg>
