<svg width="285" height="400" viewBox="0 0 285 400" fill="none" xmlns="http://www.w3.org/2000/svg">
<mask id="mask0_174_597" style="mask-type:alpha" maskUnits="userSpaceOnUse" x="0" y="0" width="285" height="400">
<rect width="285" height="400" rx="10" fill="#A19DF5"/>
</mask>
<g mask="url(#mask0_174_597)">
<g clip-path="url(#clip0_174_597)">
<path d="M277.202 208.548H276.137V301.331H277.202V208.548Z" fill="white"/>
<path d="M260.422 240.617H259.357V292.995H260.422V240.617Z" fill="white"/>
<path d="M243.642 243.039H242.576V301.044H243.642V243.039Z" fill="white"/>
<path d="M226.861 253.035H225.796V308.624H226.861V253.035Z" fill="white"/>
<path d="M210.081 285.462H209.015V320.192H210.081V285.462Z" fill="white"/>
<path d="M193.3 208.38H192.235V383.422H193.3V208.38Z" fill="white"/>
<path d="M176.52 257.034H175.454V301.15H176.52V257.034Z" fill="white"/>
<path d="M159.739 210.8H158.674V320.541H159.739V210.8Z" fill="white"/>
<path d="M142.959 138.473H141.893V311.318H142.959V138.473Z" fill="white"/>
<path d="M126.178 172.452H125.113V201.384H126.178V172.452Z" fill="white"/>
<path d="M109.398 164.098H108.333V190.537H109.398V164.098Z" fill="white"/>
<path d="M92.6176 164.076H91.5522V200.988H92.6176V164.076Z" fill="white"/>
<path d="M75.8371 180.108H74.7718V233.482H75.8371V180.108Z" fill="white"/>
<path d="M59.0567 171.752H57.9913V224.38H59.0567V171.752Z" fill="white"/>
<path d="M42.2762 170.373H41.2109V241.707H42.2762V170.373Z" fill="white"/>
<path d="M25.4957 210.852H24.4304V266.223H25.4957V210.852Z" fill="white"/>
<path d="M8.71529 228.982H7.64996V275.841H8.71529V228.982Z" fill="white"/>
<path d="M282 240.881H271.342V268.998H282V240.881Z" fill="white"/>
<path d="M265.22 258.87H254.562V274.741H265.22V258.87Z" fill="white"/>
<path d="M248.439 263.252H237.781V280.828H248.439V263.252Z" fill="white"/>
<path d="M231.659 272.408H221.001V289.253H231.659V272.408Z" fill="white"/>
<path d="M214.878 297.567H204.22V308.09H214.878V297.567Z" fill="white"/>
<path d="M198.098 258.87H187.44V332.937H198.098V258.87Z" fill="white"/>
<path d="M181.315 272.408H170.657V285.776H181.315V272.408Z" fill="white"/>
<path d="M164.534 249.044H153.876V282.299H164.534V249.044Z" fill="white"/>
<path d="M147.754 198.707H137.096V251.085H147.754V198.707Z" fill="white"/>
<path d="M130.974 182.532H120.315V191.301H130.974V182.532Z" fill="white"/>
<path d="M114.193 173.312H103.535V181.324H114.193V173.312Z" fill="white"/>
<path d="M97.4126 176.94H86.7546V188.125H97.4126V176.94Z" fill="white"/>
<path d="M80.6322 198.707H69.9742V214.882H80.6322V198.707Z" fill="white"/>
<path d="M63.8518 190.09H53.1938V206.037H63.8518V190.09Z" fill="white"/>
<path d="M47.0713 195.23H36.4133V216.847H47.0713V195.23Z" fill="white"/>
<path d="M30.2909 230.148H19.6329V246.926H30.2909V230.148Z" fill="white"/>
<path d="M13.5104 245.312H2.85242V259.51H13.5104V245.312Z" fill="white"/>
<path d="M138.26 362.107H208.108C211.35 362.107 213.979 359.479 213.979 356.237V341.416C213.979 338.175 211.35 335.547 208.108 335.547H138.26C135.018 335.547 132.39 338.175 132.39 341.416V356.237C132.39 359.479 135.018 362.107 138.26 362.107Z" fill="white"/>
<path d="M173.183 327.722L164.824 340.376H181.545L173.183 327.722Z" fill="white"/>
<path d="M162.906 349.443C163.269 349.932 163.458 350.529 163.442 351.139C163.459 351.581 163.36 352.02 163.156 352.413C162.951 352.806 162.648 353.138 162.275 353.378C161.497 353.902 160.375 354.164 158.901 354.164H152.942V343.131H158.585C159.994 343.131 161.065 343.391 161.798 343.91C162.145 344.139 162.428 344.452 162.621 344.821C162.814 345.189 162.91 345.6 162.901 346.016C162.908 346.513 162.774 347.002 162.515 347.427C162.25 347.852 161.87 348.194 161.42 348.415C162.006 348.603 162.523 348.961 162.906 349.443ZM156.032 345.39V347.518H158.177C159.229 347.518 159.753 347.161 159.752 346.446C159.75 345.73 159.225 345.379 158.177 345.39H156.032ZM160.288 350.798C160.288 350.051 159.742 349.678 158.649 349.678H156.032V351.902H158.649C159.742 351.907 160.288 351.537 160.288 350.793V350.798Z" fill="#A19DF5"/>
<path d="M169.332 353.051C168.422 352.157 167.968 350.891 167.968 349.253V343.131H171.089V349.152C171.089 350.918 171.788 351.801 173.185 351.801C174.583 351.801 175.277 350.918 175.267 349.152V343.131H178.332V349.248C178.332 350.887 177.877 352.154 176.967 353.047C176.058 353.94 174.783 354.386 173.143 354.386C171.512 354.386 170.242 353.941 169.332 353.051Z" fill="#A19DF5"/>
<path d="M189.207 350.207V354.161H186.085V350.16L181.883 343.129H185.178L187.796 347.511L190.413 343.129H193.441L189.207 350.207Z" fill="#A19DF5"/>
<path d="M144.474 118H74.626C71.3839 118 68.7557 120.628 68.7557 123.869V138.69C68.7557 141.932 71.3839 144.56 74.626 144.56H144.474C147.716 144.56 150.344 141.932 150.344 138.69V123.869C150.344 120.628 147.716 118 144.474 118Z" fill="white"/>
<path d="M109.551 152.387L117.913 139.733H101.189L109.551 152.387Z" fill="white"/>
<path d="M86.7176 136.229C85.9879 136.056 85.2937 135.757 84.666 135.347L85.6919 133.043C86.2241 133.386 86.8024 133.652 87.4096 133.832C88.0329 134.027 88.6819 134.128 89.3351 134.131C90.5314 134.131 91.132 133.832 91.132 133.233C91.1312 133.077 91.0811 132.925 90.9888 132.799C90.8965 132.673 90.7666 132.58 90.6179 132.532C90.0856 132.316 89.5346 132.151 88.9718 132.037C88.266 131.893 87.5705 131.702 86.8906 131.464C86.3367 131.26 85.843 130.92 85.4546 130.475C85.035 129.961 84.8216 129.309 84.8563 128.647C84.8489 127.997 85.0413 127.361 85.4075 126.825C85.8224 126.248 86.3948 125.802 87.0563 125.54C87.9108 125.203 88.8246 125.042 89.7429 125.068C90.4652 125.068 91.185 125.151 91.8884 125.315C92.5418 125.458 93.1694 125.699 93.7496 126.032L92.7856 128.35C91.8541 127.814 90.8026 127.521 89.7281 127.497C89.259 127.464 88.7898 127.56 88.3712 127.774C88.2433 127.845 88.1365 127.949 88.0618 128.075C87.9872 128.201 87.9471 128.345 87.946 128.491C87.9488 128.639 87.998 128.783 88.0867 128.902C88.1754 129.02 88.299 129.108 88.4403 129.153C88.9666 129.355 89.5102 129.508 90.0643 129.61C90.7734 129.752 91.4713 129.945 92.1528 130.186C92.7036 130.39 93.1965 130.725 93.5889 131.162C94.0155 131.67 94.2329 132.322 94.1969 132.984C94.2027 133.626 94.0094 134.253 93.6433 134.781C93.2245 135.356 92.6513 135.802 91.9898 136.066C91.1383 136.408 90.2255 136.572 89.308 136.548C88.4344 136.552 87.5639 136.445 86.7176 136.229Z" fill="#A19DF5"/>
<path d="M107.497 133.925V136.338H98.6361V125.303H107.287V127.715H101.721V129.576H106.625V131.909H101.721V133.925H107.497Z" fill="#A19DF5"/>
<path d="M112.226 125.303H115.347V133.864H120.615V136.335H112.226V125.303Z" fill="#A19DF5"/>
<path d="M124.841 125.303H127.961V133.864H133.228V136.335H124.841V125.303Z" fill="#A19DF5"/>
</g>
</g>
<defs>
<clipPath id="clip0_174_597">
<rect width="749" height="282" fill="white" transform="translate(-467 118)"/>
</clipPath>
</defs>
</svg>
