<svg width="288" height="40" viewBox="0 0 288 40" fill="none" xmlns="http://www.w3.org/2000/svg">
<path d="M80.1884 3.19057C80.1884 2.6272 79.9646 2.0869 79.5663 1.68853C79.1679 1.29017 78.6276 1.06637 78.0642 1.06637H54.5315L54.5481 1.04346H47.6757C47.0523 1.04346 46.5456 1.37181 46.1555 2.02851L38.1418 14.6904C38.0046 14.9093 37.8801 15.136 37.7691 15.3693C37.6628 15.5921 37.5608 15.817 37.4754 16.0482L28.7058 1.88689C28.5638 1.62267 28.3576 1.39848 28.106 1.23506C27.77 1.07505 27.3987 1.00337 27.0273 1.0268H24.32H2.20125C1.91218 1.0268 1.62594 1.08374 1.35887 1.19436C1.0918 1.30499 0.849138 1.46713 0.644733 1.67153C0.440327 1.87594 0.278184 2.1186 0.167561 2.38567C0.0569376 2.65274 0 2.93898 0 3.22805V39.5831H7.22227V23.8765H21.6418V18.1474H7.22227V6.73922H23.6202L32.1587 19.7531L19.3469 39.5831H26.0631C26.4551 39.5959 26.837 39.4572 27.1293 39.1957C27.4051 38.951 27.6474 38.6709 27.8499 38.3627L36.405 24.7178C36.4945 24.5575 36.582 24.3846 36.6716 24.1972C36.7641 24.0026 36.844 23.8022 36.911 23.5974L45.8473 38.3564C46.0436 38.6784 46.2904 38.9667 46.5782 39.2103C46.9073 39.4704 47.3192 39.6028 47.7382 39.5831H54.9084L42.1424 19.4594L50.5767 6.95165H61.4476V39.5831H68.6116V6.95165H77.9081C78.5156 6.95165 79.0983 6.71029 79.5279 6.28069C79.9575 5.85108 80.1989 5.2684 80.1989 4.66084L80.1884 3.19057Z" fill="#9995DE"/>
<path d="M89.7473 13.2096C88.342 14.2927 87.1733 15.6521 86.3132 17.2039L85.9133 13.9031C85.8245 13.2991 85.6467 12.8729 85.3802 12.6244C85.1136 12.3759 84.6437 12.2516 83.9703 12.2516H80.1072V39.5829H86.6859V22.556C87.3662 21.1024 88.1923 19.998 89.1642 19.2427C90.173 18.4762 91.413 18.0765 92.6795 18.1098C93.2973 18.094 93.9145 18.157 94.5163 18.2972C94.8712 18.4031 95.2376 18.4653 95.6076 18.4826C95.864 18.4935 96.117 18.4203 96.3281 18.2743C96.5267 18.1011 96.6506 17.8579 96.6738 17.5954L97.5256 12.6702C96.6384 12.0468 95.5201 11.7358 94.1706 11.7372C92.5742 11.7271 91.0192 12.2447 89.7473 13.2096Z" fill="#9995DE"/>
<path d="M119.84 14.7152C118.946 13.7674 117.86 13.0225 116.653 12.5306C115.295 11.9873 113.842 11.7204 112.38 11.7455C107.937 11.7455 104.147 13.1832 101.009 16.0585L102.209 18.1639C102.402 18.4997 102.665 18.7901 102.979 19.0157C103.314 19.251 103.716 19.3723 104.125 19.3614C104.635 19.3657 105.137 19.2372 105.583 18.9886C106.024 18.7408 106.509 18.4617 107.04 18.1556C107.629 17.8186 108.249 17.5396 108.892 17.3226C109.753 17.0521 110.653 16.9261 111.555 16.9498C113.028 16.9498 114.151 17.3927 114.923 18.2785C115.695 19.1642 116.081 20.5283 116.083 22.3707V23.9638C112.976 23.9638 110.374 24.2311 108.279 24.7656C106.184 25.3001 104.507 25.9728 103.246 26.7836C101.987 27.593 101.084 28.501 100.539 29.5076C100.016 30.4432 99.7367 31.4951 99.7264 32.5668C99.7034 33.6733 99.9031 34.7732 100.314 35.801C100.678 36.6903 101.24 37.4851 101.957 38.1251C102.688 38.7643 103.545 39.2425 104.473 39.5288C105.507 39.8494 106.586 40.0082 107.669 39.9994C108.563 40.0074 109.455 39.9272 110.333 39.7599C111.111 39.6057 111.87 39.3647 112.594 39.0415C113.319 38.7137 114.01 38.3168 114.658 37.8565C115.369 37.3502 116.05 36.803 116.697 36.2175L117.282 38.1626C117.46 38.7318 117.727 39.1088 118.082 39.2934C118.539 39.5008 119.039 39.5965 119.54 39.5725H122.495V22.3165C122.511 20.8681 122.281 19.4274 121.816 18.0556C121.398 16.8161 120.725 15.678 119.84 14.7152ZM116.091 32.5627C115.646 33.0202 115.17 33.4455 114.665 33.8351C114.21 34.1843 113.722 34.4871 113.207 34.7389C112.694 34.9849 112.153 35.1694 111.597 35.2887C110.98 35.4163 110.352 35.4778 109.723 35.472C108.623 35.472 107.731 35.2221 107.047 34.7223C106.362 34.2224 106.021 33.3894 106.022 32.2232C106.019 31.6405 106.191 31.0704 106.516 30.5863C106.843 30.0865 107.399 29.6485 108.182 29.2722C109.172 28.8331 110.215 28.5224 111.285 28.3476C112.872 28.0819 114.481 27.9606 116.091 27.9852V32.5627Z" fill="#9995DE"/>
<path d="M145.643 14.4341C144.795 13.6204 143.813 12.9589 142.74 12.4786C141.657 11.9885 140.353 11.7442 138.827 11.7456C137.148 11.7198 135.488 12.0894 133.979 12.8243C132.542 13.5423 131.28 14.5641 130.278 15.819C129.208 17.1658 128.402 18.7016 127.9 20.3465C127.334 22.1745 127.053 24.0787 127.067 25.9923C127.038 28.0044 127.284 30.011 127.798 31.9567C128.21 33.5328 128.916 35.0167 129.88 36.33C130.725 37.4688 131.823 38.3957 133.087 39.0373C134.363 39.6655 135.768 39.9844 137.19 39.9682C138.091 39.9748 138.99 39.872 139.866 39.6621C140.669 39.4665 141.447 39.1764 142.182 38.7978C142.898 38.4273 143.572 37.9804 144.191 37.465C144.83 36.9347 145.426 36.3562 145.976 35.7344L146.509 38.3709C146.776 39.1706 147.335 39.5698 148.188 39.5684H152.207V0H145.643V14.4341ZM145.643 31.4777C144.89 32.4387 143.974 33.2593 142.936 33.9018C141.975 34.4696 140.812 34.7535 139.447 34.7535C138.65 34.7646 137.86 34.6055 137.13 34.287C136.413 33.9558 135.804 33.4297 135.372 32.7689C134.84 31.9423 134.466 31.0244 134.268 30.0616C133.987 28.7267 133.857 27.3645 133.881 26.0006C133.855 24.6142 134.004 23.2301 134.326 21.8813C134.568 20.8486 135.006 19.8721 135.618 19.0053C136.146 18.2767 136.851 17.6947 137.667 17.3143C138.518 16.9326 139.442 16.7421 140.374 16.7562C141.348 16.7482 142.313 16.9381 143.211 17.3143C144.166 17.7473 145.002 18.4055 145.647 19.2323L145.643 31.4777Z" fill="#9995DE"/>
<path d="M179.116 15.0609C178.055 13.9966 176.776 13.1746 175.367 12.6514C173.847 12.0857 172.236 11.8034 170.615 11.8184C168.727 11.7883 166.854 12.1515 165.115 12.8846C163.553 13.5507 162.148 14.5344 160.987 15.7731C159.844 17.0149 158.962 18.4729 158.392 20.0611C157.781 21.7463 157.474 23.5269 157.486 25.3195C157.486 27.7172 157.833 29.8255 158.527 31.6442C159.149 33.3525 160.119 34.9127 161.376 36.2258C162.577 37.4558 164.031 38.4096 165.637 39.0206C167.329 39.6618 169.126 39.9824 170.935 39.9661C171.929 39.965 172.921 39.8955 173.905 39.7578C174.93 39.6135 175.938 39.3679 176.914 39.0248C177.911 38.6745 178.864 38.2105 179.755 37.6419C180.674 37.0539 181.499 36.3316 182.204 35.499L180.288 33.102C180.155 32.9159 179.982 32.7615 179.782 32.6501C179.568 32.5392 179.329 32.484 179.088 32.4897C178.642 32.5012 178.206 32.6298 177.824 32.8625C177.389 33.1103 176.883 33.3873 176.306 33.6955C175.656 34.0304 174.979 34.3091 174.282 34.5285C173.388 34.7938 172.459 34.9195 171.527 34.9013C169.361 34.9013 167.621 34.2446 166.306 32.9312C164.991 31.6178 164.237 29.5582 164.044 26.7523H180.925C181.179 26.761 181.433 26.72 181.671 26.6315C181.865 26.5532 182.029 26.4136 182.137 26.2338C182.27 25.9957 182.352 25.7326 182.377 25.4611C182.427 25.0466 182.449 24.6291 182.443 24.2116C182.475 22.4198 182.177 20.6375 181.565 18.9532C181.032 17.4977 180.197 16.1713 179.116 15.0609ZM164.177 22.7663C164.477 20.7768 165.171 19.2413 166.26 18.1597C167.348 17.0782 168.849 16.5367 170.76 16.5353C171.637 16.516 172.508 16.6835 173.316 17.0268C174.014 17.3324 174.633 17.7924 175.127 18.3721C175.614 18.9542 175.976 19.6296 176.192 20.3568C176.427 21.1381 176.544 21.9503 176.539 22.7663H164.177Z" fill="#9995DE"/>
<path d="M205.61 1.06616H198.448V39.5724H221.029V33.6622H205.61V1.06616Z" fill="#9995DE"/>
<path d="M218.047 6.95144H229.684V39.5724H236.848V6.95144H248.431V1.06616H218.047V6.95144Z" fill="#9995DE"/>
<path d="M285.757 12.5453C284.871 10.2691 283.524 8.20076 281.8 6.4705C280.042 4.74492 277.949 3.39823 275.65 2.51366C273.11 1.53731 270.408 1.05318 267.687 1.08712H252.988V39.583H267.687C270.406 39.6182 273.108 39.1399 275.65 38.1731C277.949 37.2988 280.037 35.9493 281.779 34.2128C283.52 32.4763 284.876 30.3918 285.757 28.0957C286.718 25.6172 287.197 22.9777 287.167 20.3194C287.197 17.6619 286.718 15.0231 285.757 12.5453ZM278.993 26.0048C278.486 27.5763 277.66 29.0267 276.569 30.2657C275.513 31.4348 274.207 32.3497 272.747 32.9417C271.135 33.5854 269.41 33.9025 267.674 33.8747H260.192V6.76622H267.674C269.41 6.73879 271.134 7.05517 272.747 7.69712C274.206 8.29066 275.512 9.20535 276.569 10.3732C277.659 11.6129 278.485 13.063 278.993 14.6341C279.584 16.4702 279.872 18.3906 279.845 20.3194C279.875 22.2478 279.59 24.1683 279.001 26.0048H278.993Z" fill="#9995DE"/>
</svg>
