<svg width="52" height="52" viewBox="0 0 52 52" fill="none" xmlns="http://www.w3.org/2000/svg">
<path d="M49.9863 28.3924V18.7952C49.9863 6.79863 45.1876 2 33.1911 2H18.7952C6.79863 2 2 6.79863 2 18.7952V33.1911C2 45.1876 6.79863 49.9863 18.7952 49.9863H28.3924" stroke="white" stroke-width="3" stroke-linecap="round" stroke-linejoin="round"/>
<path d="M14.7886 31.9674L20.499 24.5535C21.3147 23.4978 22.8263 23.3059 23.882 24.1216L28.2728 27.5767C29.3285 28.3924 30.84 28.2005 31.6557 27.1688L37.1982 20.0188" stroke="white" stroke-width="3" stroke-linecap="round" stroke-linejoin="round"/>
<path d="M43.9401 35.1585L44.6119 36.526C44.9478 37.1979 45.7876 37.8217 46.5314 37.9657L47.4431 38.1096C50.1783 38.5655 50.8261 40.5809 48.8587 42.5723L48.0189 43.4121C47.4671 43.9879 47.1552 45.0916 47.3232 45.8594L47.4431 46.3632C48.1869 49.6743 46.4354 50.9459 43.5562 49.2184L42.9324 48.8585C42.1886 48.4266 40.9889 48.4266 40.2452 48.8585L39.6213 49.2184C36.7181 50.9699 34.9667 49.6743 35.7344 46.3632L35.8544 45.8594C36.0223 45.0916 35.7105 43.9879 35.1586 43.4121L34.3189 42.5723C32.3514 40.5809 32.9992 38.5655 35.7344 38.1096L36.6462 37.9657C37.366 37.8457 38.2297 37.1979 38.5656 36.526L39.2374 35.1585C40.533 32.5432 42.6445 32.5432 43.9401 35.1585Z" stroke="white" stroke-width="3" stroke-linecap="round" stroke-linejoin="round"/>
</svg>
