<svg width="55" height="52" viewBox="0 0 55 52" fill="none" xmlns="http://www.w3.org/2000/svg">
<path d="M22.2746 38.5449H12.6695C4.12883 38.5449 2 36.4161 2 27.8754V12.6695C2 4.12883 4.12883 2 12.6695 2H39.3559C47.8965 2 50.0254 4.12883 50.0254 12.6695" stroke="white" stroke-width="3" stroke-linecap="round" stroke-linejoin="round"/>
<path d="M22.2743 49.9999V38.5448" stroke="white" stroke-width="3" stroke-linecap="round" stroke-linejoin="round"/>
<path d="M2 28.4076H22.2746" stroke="white" stroke-width="3" stroke-linecap="round" stroke-linejoin="round"/>
<path d="M14.0127 50H22.2746" stroke="white" stroke-width="3" stroke-linecap="round" stroke-linejoin="round"/>
<path d="M52.6862 28.0275V42.4984C52.6862 48.5048 51.191 50 45.1846 50H36.1878C30.1815 50 28.6862 48.5048 28.6862 42.4984V28.0275C28.6862 22.0211 30.1815 20.5259 36.1878 20.5259H45.1846C51.191 20.5259 52.6862 22.0211 52.6862 28.0275Z" stroke="white" stroke-width="3" stroke-linecap="round" stroke-linejoin="round"/>
<path d="M40.6342 41.8394H40.6569" stroke="white" stroke-width="3" stroke-linecap="round" stroke-linejoin="round"/>
</svg>
