<svg width="44" height="52" viewBox="0 0 44 52" fill="none" xmlns="http://www.w3.org/2000/svg">
<path d="M22.0012 16.1429L19.2887 20.6061C18.6803 21.5899 19.1873 22.4057 20.3787 22.4057H23.5982C24.8151 22.4057 25.2967 23.2215 24.6883 24.2053L22.0012 28.6684" stroke="white" stroke-width="3" stroke-linecap="round" stroke-linejoin="round"/>
<path d="M12.6218 40.4981V37.7147C6.79122 34.3793 2 27.8766 2 20.966C2 9.08838 13.5344 -0.22176 26.5645 2.4657C32.2937 3.66546 37.313 7.26475 39.9241 12.2318C45.2224 22.3097 39.6453 33.0116 31.4571 37.6907V40.4741C31.4571 41.17 31.736 42.7777 29.0235 42.7777H15.0554C12.2669 42.8016 12.6218 41.7699 12.6218 40.4981Z" stroke="white" stroke-width="3" stroke-linecap="round" stroke-linejoin="round"/>
<path d="M13.1279 50C18.9332 48.4403 25.0679 48.4403 30.8732 50" stroke="white" stroke-width="3" stroke-linecap="round" stroke-linejoin="round"/>
</svg>
