<svg width="19" height="18" viewBox="0 0 19 18" fill="none" xmlns="http://www.w3.org/2000/svg">
<path d="M9.82167 17.9999C11.1981 17.804 12.4048 16.3645 13.1641 14.2386C12.0665 13.9923 10.9464 13.8601 9.82171 13.8443L9.82167 17.9999ZM12.0208 17.6619C12.1021 17.6383 12.1832 17.6145 12.2636 17.5884C12.3314 17.5665 12.3984 17.5429 12.4653 17.5194C12.5446 17.4922 12.6234 17.4637 12.7018 17.434C12.7687 17.4085 12.835 17.3814 12.9015 17.3543C12.9781 17.3221 13.0546 17.29 13.1304 17.2577C13.2716 17.195 13.4113 17.1288 13.5494 17.0594C13.6138 17.0265 13.6781 16.993 13.7425 16.9585C13.8146 16.9198 13.8862 16.8803 13.9573 16.8396C14.0209 16.8035 14.0839 16.7665 14.1465 16.7287C14.2162 16.6857 14.2856 16.6428 14.3546 16.5998C14.4165 16.5605 14.4779 16.5203 14.5387 16.4792C14.6065 16.4331 14.6736 16.3861 14.7401 16.3381C14.7996 16.2955 14.8589 16.2525 14.9179 16.2091C14.9833 16.1587 15.0482 16.1078 15.1128 16.0563C15.1701 16.0105 15.2273 15.965 15.2837 15.918C15.3479 15.8645 15.4095 15.8091 15.4719 15.7537C15.5266 15.705 15.5815 15.6568 15.6349 15.607C15.6963 15.5495 15.7562 15.49 15.816 15.431C15.8679 15.3797 15.9203 15.3292 15.9711 15.2766C15.9805 15.2669 15.9894 15.2563 15.9992 15.2462C15.2976 14.8831 14.5585 14.5981 13.7949 14.3963C13.3978 15.6653 12.6912 16.8151 11.739 17.7415C11.7651 17.7348 11.7911 17.7292 11.8172 17.7225C11.886 17.7031 11.9535 17.6819 12.0208 17.6619ZM18.5 9.32234H14.6428C14.6282 10.8314 14.4097 12.3316 13.9933 13.7819C14.8424 14.0092 15.6619 14.3359 16.4347 14.7553C17.7036 13.2229 18.4299 11.3123 18.5 9.32234H18.5ZM9.82167 8.67766H13.9994C13.9831 7.22195 13.77 5.77517 13.3661 4.37675C12.2028 4.64258 11.0147 4.78455 9.82167 4.8003V8.67766ZM9.82167 0V4.15562C10.9464 4.13976 12.0665 4.00764 13.1641 3.76136C12.4048 1.63546 11.1982 0.195982 9.82171 0H9.82167ZM9.82167 13.1997C11.0147 13.2155 12.2028 13.3576 13.3661 13.6234C13.77 12.2249 13.9831 10.7781 13.9994 9.32234H9.82167V13.1997ZM16.4347 3.24465C15.6619 3.6641 14.8425 3.99084 13.9933 4.21812C14.4097 5.66844 14.6282 7.16859 14.6428 8.67766H18.5C18.4297 6.68772 17.7035 4.77718 16.4347 3.24465ZM16.0001 2.75563C15.9907 2.74604 15.9818 2.73564 15.9725 2.72573C15.9216 2.67315 15.8688 2.62246 15.817 2.57133C15.7573 2.5123 15.6977 2.45267 15.6362 2.39537C15.5829 2.34561 15.5278 2.29855 15.4731 2.24899C15.4108 2.19359 15.3484 2.13771 15.2843 2.0842C15.2287 2.03714 15.1717 1.99213 15.1152 1.94696C15.0505 1.8944 14.985 1.84302 14.9185 1.79284C14.8603 1.74916 14.8015 1.70619 14.7423 1.66395C14.6753 1.61523 14.6075 1.56758 14.539 1.52103C14.4788 1.4805 14.418 1.44078 14.3566 1.40189C14.2874 1.35702 14.2174 1.31327 14.1468 1.27066C14.0847 1.23327 14.0222 1.19665 13.9592 1.16078C13.8876 1.11969 13.8153 1.07961 13.7425 1.04055C13.6781 1.00827 13.6138 0.973179 13.5494 0.940905C13.4755 0.903433 13.4008 0.867412 13.3243 0.831995C13.2595 0.801078 13.1941 0.771164 13.1283 0.742264C13.0521 0.708418 12.9751 0.677917 12.8983 0.645643C12.8323 0.618411 12.7659 0.591964 12.6992 0.566308C12.6208 0.536586 12.542 0.50815 12.4628 0.481009C12.3958 0.457127 12.3286 0.434091 12.2611 0.411908C12.1806 0.385798 12.1002 0.362026 12.0176 0.338092C11.9507 0.31843 11.8835 0.298445 11.8158 0.280474C11.7899 0.273423 11.7635 0.267903 11.7374 0.261134C12.6896 1.18761 13.3962 2.33734 13.7934 3.60632C14.5578 3.40456 15.2978 3.11929 16.0001 2.75563ZM0.5 8.67766H4.35717C4.3718 7.1686 4.59023 5.66846 5.0065 4.21812C4.15738 3.99095 3.33797 3.66421 2.56526 3.24465C1.29637 4.77709 0.570086 6.68769 0.5 8.67766ZM9.17829 17.9999V13.8444C8.05359 13.8602 6.93353 13.9924 5.83591 14.2386C6.59502 16.3645 7.80185 17.804 9.17829 18V17.9999ZM9.17829 9.32234H5.00055C5.01686 10.7781 5.22991 12.2249 5.63388 13.6234C6.79715 13.3574 7.98522 13.2154 9.17829 13.1997V9.32234ZM9.17829 0C7.80185 0.195982 6.59502 1.63546 5.83591 3.76136C6.93351 4.00779 8.05358 4.13991 9.17829 4.15562V0ZM9.17829 4.8003C7.98523 4.78455 6.79717 4.64258 5.63388 4.37675C5.22991 5.77515 5.01686 7.22194 5.00055 8.67766H9.17829V4.8003ZM7.26008 0.260852C7.23402 0.267581 7.20792 0.273101 7.18187 0.27987C7.11371 0.298122 7.04647 0.31843 6.9786 0.338092C6.89785 0.361704 6.81775 0.385476 6.73673 0.411263C6.66837 0.433464 6.60117 0.457075 6.53394 0.480566C6.45524 0.508367 6.37639 0.536088 6.29846 0.565663C6.23123 0.59149 6.16496 0.618244 6.09837 0.645643C6.02185 0.677877 5.9452 0.710151 5.86964 0.742264C5.80338 0.771395 5.73787 0.801896 5.67221 0.832599C5.59784 0.867579 5.52395 0.903576 5.45056 0.940582C5.31286 1.01043 5.17695 1.08375 5.04294 1.16046C4.97903 1.19623 4.91578 1.23317 4.85322 1.27126C4.78333 1.31345 4.71421 1.35708 4.6454 1.4002C4.58348 1.43984 4.52208 1.47981 4.46132 1.52107C4.39354 1.56719 4.32641 1.61424 4.25994 1.66222C4.20032 1.70483 4.141 1.74785 4.08196 1.79127C4.01613 1.84083 3.95328 1.89249 3.88702 1.94398C3.82988 1.98975 3.77221 2.03524 3.71628 2.08259C3.6519 2.13581 3.59082 2.19089 3.52873 2.24601C3.47376 2.29509 3.41831 2.34279 3.36459 2.39364C3.30347 2.45078 3.24395 2.51009 3.18428 2.56895C3.13241 2.62029 3.07965 2.67093 3.02878 2.72368C3.01953 2.73343 3.01057 2.74414 3.00079 2.75406C3.70233 3.11731 4.4415 3.40238 5.20507 3.60414C5.6021 2.33587 6.30839 1.18682 7.26008 0.260852ZM3.18287 15.4286C3.24271 15.4877 3.30226 15.5473 3.36366 15.6047C3.41706 15.6543 3.47203 15.7014 3.52684 15.751C3.58921 15.8065 3.65158 15.8623 3.71567 15.9158C3.77129 15.9625 3.82799 16.0077 3.88484 16.053C3.94922 16.1053 4.01348 16.1572 4.08164 16.2074C4.13962 16.251 4.19853 16.2932 4.2574 16.3365C4.32464 16.3848 4.39251 16.4331 4.46099 16.4795C4.52128 16.5201 4.58207 16.5598 4.64335 16.5988C4.71292 16.6436 4.78237 16.6875 4.85322 16.7299C4.91526 16.7674 4.97791 16.8041 5.04076 16.8399C5.11242 16.8811 5.18467 16.9211 5.2575 16.9601C5.32176 16.9923 5.38618 17.0274 5.45056 17.0597C5.52455 17.0972 5.59918 17.1332 5.67566 17.1688C5.74004 17.1992 5.80539 17.229 5.8717 17.2583C5.94786 17.2922 6.0247 17.3227 6.10166 17.355C6.16793 17.382 6.23392 17.4088 6.30083 17.4343C6.37888 17.4644 6.45806 17.4924 6.53724 17.5197C6.60415 17.5432 6.67106 17.5668 6.7389 17.5887C6.81932 17.6148 6.89974 17.6387 6.98238 17.6625C7.04929 17.6822 7.11652 17.7022 7.18408 17.7203C7.21014 17.7273 7.23651 17.7329 7.26261 17.7396C6.31044 16.813 5.6038 15.6633 5.2066 14.3942C4.44304 14.5961 3.70387 14.8813 3.00236 15.2447C3.01181 15.2542 3.02078 15.2646 3.03019 15.2746C3.07844 15.3268 3.1304 15.3775 3.18287 15.4286ZM2.56526 14.7553C3.33804 14.3359 4.15743 14.0091 5.0065 13.7818C4.59023 12.3315 4.3718 10.8314 4.35717 9.3223H0.5C0.570185 11.3123 1.29645 13.2228 2.56526 14.7553Z" fill="#9995DE"/>
</svg>
